<?xml version="1.0" encoding="UTF-8"?>
<svg width="24px" height="24px" viewBox="0 0 24 24" version="1.1" xmlns="http://www.w3.org/2000/svg" xmlns:xlink="http://www.w3.org/1999/xlink">
    <title>xhdpi/icon/add_people</title>
    <defs>
        <polygon id="path-1" points="0 0 21.7436029 0 21.7436029 21.3529412 0 21.3529412"></polygon>
        <polygon id="path-3" points="0 0 19.7669118 0 19.7669118 19.4117647 0 19.4117647"></polygon>
    </defs>
    <g id="icon/add_people" stroke="none" stroke-width="1" fill="none" fill-rule="evenodd">
        <g id="Group-3" transform="translate(1.000000, 2.000000)">
            <mask id="mask-2" fill="white">
                <use xlink:href="#path-1"></use>
            </mask>
            <g id="Clip-2"></g>
        </g>
        <path d="M21,6 L21,9 L24,9 L24,10 L21,10 L21,13 L20,13 L20,10 L17,10 L17,9 L20,9 L20,6 L21,6 Z" id="Combined-Shape" fill="#2D2D2D"></path>
        <g id="Group-3" transform="translate(1.000000, 2.000000)">
            <mask id="mask-4" fill="white">
                <use xlink:href="#path-3"></use>
            </mask>
            <g id="Clip-2"></g>
            <path d="M9.88338235,18.2352941 C6.2075,18.2352941 3.28485294,17.9017647 1.1775,17.4576471 C1.18367647,16.1720588 1.47279412,14.9526471 1.98455882,13.8558824 C2.19985294,13.3938235 2.45514706,12.9538235 2.74573529,12.54 C3.82867647,10.9970588 5.40073529,9.81970588 7.23691176,9.23441176 C8.00573529,9.71676471 8.91102941,10 9.88338235,10 C10.8557353,10 11.7610294,9.71676471 12.5298529,9.23441176 C14.3660294,9.81970588 15.9380882,10.9970588 17.0213235,12.54 C17.3116176,12.9538235 17.5669118,13.3938235 17.7825,13.8558824 C18.2939706,14.9526471 18.5830882,16.1720588 18.5895588,17.4576471 C16.4819118,17.9017647 13.5592647,18.2352941 9.88338235,18.2352941 M6.05985294,5 C6.05985294,2.89176471 7.77514706,1.17647059 9.88338235,1.17647059 C11.9916176,1.17647059 13.7069118,2.89176471 13.7069118,5 C13.7069118,6.18588235 13.1642647,7.24764706 12.3139706,7.94941176 C11.6530882,8.49529412 10.8057353,8.82352941 9.88338235,8.82352941 C8.96102941,8.82352941 8.11367647,8.49529412 7.45279412,7.94941176 C6.6025,7.24764706 6.05985294,6.18588235 6.05985294,5 M19.7586765,17.1791176 C19.7242647,16.1167647 19.5227941,15.0961765 19.1757353,14.1438235 C19.0072059,13.6811765 18.8051471,13.2344118 18.5719118,12.8064706 C17.4795588,10.8047059 15.7101471,9.22264706 13.5733824,8.36205882 C14.3842647,7.47323529 14.8833824,6.29529412 14.8833824,5 C14.8833824,2.24294118 12.6404412,0 9.88338235,0 C7.12632353,0 4.88338235,2.24294118 4.88338235,5 C4.88338235,6.29529412 5.3825,7.47323529 6.19338235,8.36235294 C4.05691176,9.22264706 2.2875,10.8047059 1.19485294,12.8064706 C0.961617647,13.2344118 0.759558824,13.6811765 0.591029412,14.1438235 C0.243970588,15.0961765 0.0425,16.1167647 0.00808823529,17.1791176 C0.00485294118,17.2858824 -0.000147058824,17.3923529 -0.000147058824,17.5 C-0.000147058824,17.8055882 0.0160294118,18.1073529 0.0433823529,18.4061765 C0.158088235,18.435 0.271323529,18.4638235 0.391029412,18.4917647 C0.669852941,18.5567647 0.960735294,18.6182353 1.25867647,18.6767647 C3.67720588,19.1523529 6.69720588,19.4117647 9.88338235,19.4117647 C13.0695588,19.4117647 16.0895588,19.1523529 18.5080882,18.6767647 C18.8063235,18.6182353 19.0969118,18.5567647 19.3757353,18.4917647 C19.4954412,18.4638235 19.6086765,18.435 19.7233824,18.4061765 C19.7507353,18.1073529 19.7669118,17.8055882 19.7669118,17.5 C19.7669118,17.3923529 19.7622059,17.2858824 19.7586765,17.1791176" id="Fill-1" fill="#2D2D2D" mask="url(#mask-4)"></path>
        </g>
    </g>
</svg>