<?xml version="1.0" encoding="UTF-8"?>
<svg width="24px" height="24px" viewBox="0 0 24 24" version="1.1" xmlns="http://www.w3.org/2000/svg" xmlns:xlink="http://www.w3.org/1999/xlink">
    <title>xhdpi/icon/alarm on</title>
    <defs>
        <polygon id="path-1" points="0 0.5 14.9998319 0.5 14.9998319 17.4198 0 17.4198"></polygon>
    </defs>
    <g id="icon/alarm-on" stroke="none" stroke-width="1" fill="none" fill-rule="evenodd">
        <g id="Group-6" transform="translate(5.000000, 0.000000)">
            <g id="Group-3" transform="translate(0.000000, 0.500000)">
                <mask id="mask-2" fill="white">
                    <use xlink:href="#path-1"></use>
                </mask>
                <g id="Clip-2"></g>
                <path d="M7.4967,16.4048 C11.6097,16.4328 13.6877,16.4158 13.9257,16.3858 C14.0017,16.2798 13.999705,16.1598 13.999705,16.1148 C13.9827,14.8658 13.9877,13.6218 13.9927,12.3778 C13.9967,11.1538 14.0017,9.9288 13.9857,8.7048 L13.9817,8.3258 C13.9777,7.7528 13.9757,7.4068 13.8747,6.8738 C13.8037,6.4958 13.6117,5.4908 12.9257,4.4238 C11.9877,2.9638 10.6837,2.2658 9.9907,1.9788 C9.6427,1.8348 8.7057,1.4998 7.5167,1.4998 L7.4987,1.4998 L7.4837,1.4998 C6.2957,1.4998 5.3577,1.8348 5.0097,1.9788 C4.3157,2.2658 3.0117,2.9648 2.0737,4.4238 C1.3867,5.4928 1.1967,6.4968 1.1247,6.8738 C1.0247,7.4068 1.0217,7.7538 1.0177,8.3268 L1.0147,8.7038 C0.9977,9.9318 1.0027,11.1598 1.0077,12.3878 C1.0127,13.6288 1.0177,14.8698 0.999690151,16.1108 C0.999690151,16.1598 0.9977,16.2798 1.0507,16.3488 C1.3117,16.4158 3.3917,16.4338 7.4967,16.4048 M11.1197,17.4198 C10.1447,17.4198 8.9367,17.4148 7.4967,17.4048 C3.3497,17.4328 1.1217,17.4208 0.8817,17.3668 C0.6297,17.3108 0.4437,17.1538 0.3927,17.1068 C0.3437,17.0598 0.2997,17.0128 0.2587,16.9588 C0.0827,16.7318 -0.0043,16.4428 -0.000431889372,16.1018 C0.0177,14.8618 0.0127,13.6268 0.0077,12.3918 C0.0027,11.1578 -0.0023,9.9248 0.0147,8.6908 L0.0177,8.3208 C0.0217,7.7338 0.0247,7.3098 0.1427,6.6888 C0.2157,6.2998 0.4397,5.1158 1.2327,3.8828 C2.3187,2.1948 3.8257,1.3858 4.6267,1.0548 C5.0307,0.8878 6.1157,0.4998 7.4837,0.4998 L7.5017,0.4998 L7.5167,0.4998 C8.8857,0.4998 9.9697,0.8878 10.3727,1.0548 C11.1737,1.3858 12.6807,2.1938 13.7667,3.8828 C14.5587,5.1128 14.7757,6.2578 14.8577,6.6878 C14.9747,7.3098 14.9777,7.7328 14.9817,8.3198 L14.9857,8.6918 C15.0017,9.9208 14.9967,11.1518 14.9927,12.3818 C14.9877,13.6198 14.9827,14.8588 14.9998319,16.0968 C15.0037,16.4428 14.9167,16.7318 14.7407,16.9598 C14.6997,17.0128 14.6567,17.0598 14.6117,17.1018 C14.5567,17.1538 14.3707,17.3108 14.1177,17.3668 C13.9607,17.4018 12.9557,17.4198 11.1197,17.4198" id="Fill-1" fill="#2D2D2D" mask="url(#mask-2)"></path>
            </g>
            <path d="M7.404,22.5 C5.62,22.5 4.169,21 4.169,19.156 C4.169,18.88 4.393,18.656 4.669,18.656 C4.946,18.656 5.169,18.88 5.169,19.156 C5.169,20.449 6.172,21.5 7.404,21.5 C8.636,21.5 9.638,20.449 9.638,19.156 C9.638,18.88 9.862,18.656 10.138,18.656 C10.415,18.656 10.638,18.88 10.638,19.156 C10.638,21 9.187,22.5 7.404,22.5" id="Fill-4" fill="#2D2D2D"></path>
        </g>
    </g>
</svg>