<?xml version="1.0" encoding="UTF-8"?>
<svg width="14px" height="14px" viewBox="0 0 14 14" version="1.1" xmlns="http://www.w3.org/2000/svg" xmlns:xlink="http://www.w3.org/1999/xlink">
    <title>xhdpi/icon/alarm_off_chatlist</title>
    <g id="icon/alarm_off_chatlist" stroke="none" stroke-width="1" fill="none" fill-rule="evenodd">
        <g id="Group-5" transform="translate(3.000000, 1.000000)" fill="#D8D8D8">
            <path d="M7.99978575,8.13208735 C7.98025747,6.80311241 8.01084602,5.47379882 7.99183619,4.14482387 C7.98552838,3.70476706 7.998144,3.4850773 7.92348718,3.11300156 C7.876049,2.87646468 7.75455885,2.30425537 7.34074926,1.69784388 C6.71005471,0.773453676 5.81261757,0.387663203 5.53239529,0.27845326 C5.40442452,0.228589185 4.7936903,-0.00176760113 4.0000296,0 C3.20636889,-0.00176760113 2.59563467,0.228589185 2.4676639,0.27845326 C2.18744162,0.387663203 1.29000449,0.773453676 0.659309932,1.69784388 C0.245500339,2.30425537 0.12392379,2.87646468 0.0764856049,3.11300156 C0.00191519807,3.4850773 0.0145308173,3.70476706 0.00822300769,4.14482387 C-0.0108732379,5.47379882 0.0197153184,6.80311241 0.000187031053,8.13208735 C-0.000417827404,8.17526338 -0.0043062032,8.31528915 0.0884963657,8.42890135 C0.102580927,8.44600245 0.117356755,8.46098707 0.132391808,8.47410919 C0.132391808,8.47410919 0.200049547,8.53269313 0.280409313,8.54979422 C0.390407144,8.57299075 1.89659111,8.57739301 4.0000296,8.56367828 C6.10346808,8.57739301 7.60965205,8.57299075 7.71964988,8.54979422 C7.80000965,8.53269313 7.86766739,8.47410919 7.86766739,8.47410919 C7.88270244,8.46098707 7.89747827,8.44600245 7.91147642,8.42890135 C8.0043654,8.31528915 8.00047702,8.17526338 7.99978575,8.13208735" id="Fill-1"></path>
        </g>
        <circle id="Oval" fill="#D8D8D8" cx="7" cy="10" r="2"></circle>
        <rect id="Rectangle" stroke="#FFFFFF" fill="#D8D8D8" transform="translate(7.500000, 7.000000) rotate(45.000000) translate(-7.500000, -7.000000) " x="6.5" y="-0.5" width="2" height="15"></rect>
    </g>
</svg>