<?xml version="1.0" encoding="UTF-8"?>
<svg width="24px" height="24px" viewBox="0 0 24 24" version="1.1" xmlns="http://www.w3.org/2000/svg" xmlns:xlink="http://www.w3.org/1999/xlink">
    <title>xhdpi/icon/alarm off</title>
    <defs>
        <polygon id="path-1" points="0.0896 0.1563 6.5586 0.1563 6.5586 4 0.0896 4"></polygon>
    </defs>
    <g id="icon/alarm-off" stroke="none" stroke-width="1" fill="none" fill-rule="evenodd">
        <g id="Group-10" transform="translate(3.000000, 1.000000)">
            <path d="M16.9058,8.1914 L16.9028,7.8194 C16.8978,7.2334 16.8948,6.8094 16.7778,6.1884 C16.7488,6.0374 16.7018,5.7964 16.6218,5.4994 L15.7878,6.3334 C15.7898,6.3454 15.7938,6.3624 15.7958,6.3744 C15.8958,6.9064 15.8988,7.2534 15.9028,7.8264 L15.9058,8.2044 C15.9228,9.4284 15.9178,10.6534 15.9128,11.8784 C15.9078,13.1224 15.9028,14.3664 15.9198,15.6154 C15.9208,15.6604 15.9228,15.7804 15.8458,15.8864 C15.6078,15.9154 13.5298,15.9334 9.4168,15.9044 C8.1458,15.9134 7.0928,15.9174 6.2038,15.9174 L5.2028,16.9184 C6.2658,16.9204 7.6578,16.9174 9.4168,16.9044 C10.8578,16.9144 12.0658,16.9194 13.0398,16.9194 C14.8758,16.9194 15.8818,16.9014 16.0378,16.8674 C16.2908,16.8114 16.4768,16.6534 16.5318,16.6024 C16.5768,16.5604 16.6198,16.5124 16.6608,16.4604 C16.8378,16.2314 16.9248,15.9424 16.9198,15.5964 C16.9028,14.3584 16.9078,13.1204 16.9128,11.8814 C16.9178,10.6514 16.9228,9.4204 16.9058,8.1914" id="Fill-1" fill="#2D2D2D"></path>
            <path d="M2.9219,14.957 C2.9299,13.934 2.9319,12.911 2.9279,11.888 C2.9229,10.66 2.9179,9.432 2.9349,8.204 L2.9379,7.827 C2.9419,7.253 2.9449,6.907 3.0459,6.374 C3.1169,5.997 3.3069,4.993 3.9939,3.924 C4.9319,2.464 6.2359,1.766 6.9299,1.479 C7.2779,1.334 8.2159,1 9.4039,1 L9.4189,1 L9.4369,1 C10.6259,1 11.5629,1.335 11.9109,1.479 C12.5159,1.729 13.5869,2.294 14.4739,3.405 L15.1819,2.697 C14.1709,1.471 12.9759,0.837 12.2929,0.555 C11.8899,0.388 10.8059,0 9.4369,0 L9.4219,0 L9.4039,0 C8.0359,0 6.9509,0.388 6.5469,0.555 C5.7459,0.886 4.2389,1.694 3.1529,3.383 C2.3599,4.616 2.1359,5.799 2.0629,6.188 C1.9449,6.81 1.9429,7.233 1.9379,7.82 L1.9349,8.191 C1.9179,9.425 1.9229,10.658 1.9279,11.892 C1.9329,13.127 1.9379,14.362 1.92078279,15.602 C1.9189,15.716 1.9429,15.815 1.9619,15.917 L2.9219,14.957 Z" id="Fill-3" fill="#2D2D2D"></path>
            <g id="Group-7" transform="translate(6.000000, 17.500000)">
                <mask id="mask-2" fill="white">
                    <use xlink:href="#path-1"></use>
                </mask>
                <g id="Clip-6"></g>
                <path d="M6.0586,0.1563 C5.7826,0.1563 5.5586,0.3803 5.5586,0.6563 C5.5586,1.9483 4.5566,3.0003 3.3246,3.0003 C2.0916,3.0003 1.0896,1.9483 1.0896,0.6563 C1.0896,0.3803 0.8656,0.1563 0.5896,0.1563 C0.3126,0.1563 0.0896,0.3803 0.0896,0.6563 C0.0896,2.5003 1.5406,4.0003 3.3246,4.0003 C5.1076,4.0003 6.5586,2.5003 6.5586,0.6563 C6.5586,0.3803 6.3346,0.1563 6.0586,0.1563" id="Fill-5" fill="#2D2D2D" mask="url(#mask-2)"></path>
            </g>
            <path d="M18.9995,0.5005 C18.8725,0.5005 18.7445,0.5485 18.6465,0.6465 L15.7705,3.5225 L15.0415,4.2515 L3.4085,15.8845 L2.5365,16.7565 L0.1465,19.1465 C-0.0485,19.3415 -0.0485,19.6585 0.1465,19.8535 C0.2445,19.9515 0.3725,20.0005 0.4995,20.0005 C0.6275,20.0005 0.7555,19.9515 0.8535,19.8535 L3.7995,16.9075 L4.7935,15.9135 L15.4845,5.2225 L16.2535,4.4535 L19.3535,1.3535 C19.5485,1.1585 19.5485,0.8415 19.3535,0.6465 C19.2555,0.5485 19.1275,0.5005 18.9995,0.5005 Z" id="Fill-8" fill="#2D2D2D"></path>
        </g>
    </g>
</svg>