<?xml version="1.0" encoding="UTF-8"?>
<svg width="24px" height="24px" viewBox="0 0 24 24" version="1.1" xmlns="http://www.w3.org/2000/svg" xmlns:xlink="http://www.w3.org/1999/xlink">
    <title>xhdpi/icon/attach</title>
    <g id="icon/attach" stroke="none" stroke-width="1" fill="none" fill-rule="evenodd">
        <path d="M19.4674746,11.9421623 C19.7354746,12.1831623 19.7354746,12.6551623 19.4764746,12.9131623 L12.8824746,19.5071623 C10.6814746,21.6991623 7.53547463,21.5301623 5.54847463,19.5521623 C3.56147463,17.5651623 3.39247463,14.4191623 5.59247463,12.2181623 L14.5754746,3.22716226 C16.2414746,1.56116226 18.4694746,1.66816226 19.8864746,3.08516226 C21.3384746,4.53716226 21.4104746,6.72916226 19.7434746,8.39616226 L10.9754746,17.1631623 C10.0574746,18.0811623 8.73847463,18.1001623 7.86547463,17.2261623 C7.06347463,16.4241623 7.02847463,15.0331623 7.93647463,14.1251623 L14.0594746,8.00416226 C14.3254746,7.73616226 14.7184746,7.71816226 14.9764746,7.96816226 C15.2354746,8.22616226 15.2174746,8.61816226 14.9494746,8.89516226 L8.84547463,14.9811623 C8.40847463,15.4351623 8.53347463,15.9511623 8.83647463,16.2641623 C9.13947463,16.5671623 9.67447463,16.7001623 10.1114746,16.2461623 L18.8444746,7.51316226 C19.8604746,6.48816226 20.0024746,4.99116226 19.0304746,4.00316226 C18.0504746,3.03116226 16.5444746,3.17316226 15.5204746,4.19816226 L6.58247463,13.1271623 C4.88047463,14.8381623 5.04947463,17.1101623 6.51947463,18.5711623 C7.98147463,20.0511623 10.2714746,20.2201623 11.9734746,18.5091623 L18.5234746,11.9601623 C18.7904746,11.7021623 19.2094746,11.6661623 19.4674746,11.9421623" id="Fill-1" fill="#D8D8D8"></path>
    </g>
</svg>