<?xml version="1.0" encoding="UTF-8"?>
<svg width="24px" height="24px" viewBox="0 0 24 24" version="1.1" xmlns="http://www.w3.org/2000/svg" xmlns:xlink="http://www.w3.org/1999/xlink">
    <title>xhdpi/icon/barcode</title>
    <defs>
        <polygon id="path-1" points="0 0 21.7436029 0 21.7436029 21.3529412 0 21.3529412"></polygon>
    </defs>
    <g id="icon/barcode" stroke="none" stroke-width="1" fill="none" fill-rule="evenodd">
        <g id="Group-3" transform="translate(11.000000, 13.000000) scale(1, -1) rotate(90.000000) translate(-11.000000, -13.000000) translate(0.000000, 2.000000)">
            <mask id="mask-2" fill="white">
                <use xlink:href="#path-1"></use>
            </mask>
            <g id="Clip-2"></g>
        </g>
        <rect id="Rectangle" stroke="#2D2D2D" stroke-width="1.3" transform="translate(12.000000, 12.000000) scale(1, -1) rotate(90.000000) translate(-12.000000, -12.000000) " x="2.65" y="1.65" width="18.7" height="20.7" rx="1"></rect>
        <rect id="Rectangle" fill="#FFFFFF" x="0" y="4" width="23" height="16"></rect>
        <rect id="Rectangle" fill="#2D2D2D" x="4" y="6" width="1" height="12"></rect>
        <rect id="Rectangle-Copy-4" fill="#2D2D2D" x="12" y="6" width="1" height="12"></rect>
        <rect id="Rectangle-Copy-5" fill="#2D2D2D" x="17" y="6" width="1" height="12"></rect>
        <rect id="Rectangle-Copy-6" fill="#2D2D2D" x="19" y="6" width="1" height="12"></rect>
        <rect id="Rectangle-Copy-2" fill="#2D2D2D" x="9" y="6" width="1.5" height="12"></rect>
        <rect id="Rectangle-Copy-7" fill="#2D2D2D" x="6" y="6" width="1.5" height="12"></rect>
        <rect id="Rectangle-Copy-3" fill="#2D2D2D" x="14" y="6" width="1.5" height="12"></rect>
    </g>
</svg>