<?xml version="1.0" encoding="UTF-8"?>
<svg width="24px" height="24px" viewBox="0 0 24 24" version="1.1" xmlns="http://www.w3.org/2000/svg" xmlns:xlink="http://www.w3.org/1999/xlink">
    <title>xhdpi/icon/call</title>
    <defs>
        <polygon id="path-1" points="0 0 20 0 20 20 0 20"></polygon>
    </defs>
    <g id="icon/call" stroke="none" stroke-width="1" fill="none" fill-rule="evenodd">
        <g id="Group-3" transform="translate(2.000000, 2.000000)">
            <mask id="mask-2" fill="white">
                <use xlink:href="#path-1"></use>
            </mask>
            <g id="Clip-2"></g>
            <path d="M17.9365507,17.4620631 C17.9778916,17.3991539 18.0102453,17.3668006 18.0623708,17.3038914 C18.4218567,16.9138544 18.5998023,16.5256148 18.5998023,16.1769181 C18.5998023,15.8408032 18.4631976,15.5550157 18.1162937,15.3339348 L15.0714478,13.2920819 C14.6814056,13.0278633 14.2392379,12.9865229 13.8078548,13.4179003 L12.9558731,14.280655 C12.3231779,14.9133418 11.5125371,14.891773 10.8798418,14.4603956 C10.1428957,13.9553246 8.93142806,12.9236137 7.97339804,11.9548121 C7.0261526,10.9949974 6.04655343,9.859037 5.54147569,9.12030325 C5.10829514,8.48941385 5.08852341,7.67878388 5.71942123,7.04609707 L6.5839849,6.19232936 C7.01536802,5.76095199 6.97222971,5.31879018 6.70980498,4.92875315 L4.66612744,1.88574528 C4.44504359,1.53884598 4.1610497,1.40044574 3.82313292,1.40044574 C3.48701357,1.40044574 3.08618675,1.58018631 2.69614451,1.93787005 C2.64401905,1.98100779 2.60267817,2.02234812 2.53976813,2.06548585 C1.68598904,2.85454696 1.28516222,3.88625784 1.27437764,5.05636895 C1.24382134,7.75247751 3.32883976,11.1963068 6.10946347,13.966109 C8.86851802,16.7359112 12.2279141,18.7579927 14.913274,18.7256394 C16.1031725,18.7148549 17.1474791,18.3158309 17.9365507,17.4620631 M5.17120518,14.8288638 C1.91785746,11.5755595 0,8.01489874 0,5.05636895 C0,3.39197127 0.485306012,2.16973538 1.623079,1.11645564 C1.69677361,1.05354644 1.75968365,0.990637241 1.82259369,0.938512476 C2.49662982,0.305825667 3.20301968,-0.0105177378 3.84470208,0.000266696419 C4.52952278,0.0218355649 5.16221803,0.390303735 5.70863665,1.19014927 L7.81522423,4.24394157 C8.41556574,5.10849372 8.51082951,6.12942016 7.61570954,7.04609707 L6.85719421,7.81538671 C6.62532578,8.04725205 6.5839849,8.29888885 6.74036128,8.58467635 C7.16275726,9.32161269 7.85836254,10.1106738 8.83796171,11.0902599 C9.73308169,11.985368 10.901411,12.9433852 11.4172733,13.2597286 C11.7012672,13.4179003 11.9547048,13.37656 12.1865732,13.1446946 L12.9558731,12.3861894 C13.8707648,11.4910814 14.8935023,11.5845465 15.7562685,12.18488 L18.8101016,14.2914395 C19.6117552,14.8396482 20,15.472335 20,16.1553492 C20,16.7988204 19.6962344,17.4944164 19.0635391,18.1774306 C19.0114137,18.2421372 18.9467062,18.3050464 18.8837962,18.3787401 C17.8215152,19.5254849 16.5884785,20 14.9042869,20 C11.9654894,20 8.41556574,18.0623966 5.17120518,14.8288638" id="Fill-1" fill="#231916" mask="url(#mask-2)"></path>
        </g>
    </g>
</svg>