<?xml version="1.0" encoding="UTF-8"?>
<svg width="24px" height="24px" viewBox="0 0 24 24" version="1.1" xmlns="http://www.w3.org/2000/svg" xmlns:xlink="http://www.w3.org/1999/xlink">
    <title>xhdpi/icon/camera</title>
    <g id="icon/camera" stroke="none" stroke-width="1" fill="none" fill-rule="evenodd">
        <path d="M12,19.6260504 C13.5272727,19.6260504 14.88,19.0252101 15.9709091,17.8697479 C17.0618182,16.7142857 17.6290909,15.3277311 17.6290909,13.6638655 C17.6290909,12 17.0618182,10.6134454 15.9709091,9.45798319 C14.88,8.30252101 13.5709091,7.70168067 12,7.70168067 C10.4727273,7.70168067 9.12,8.30252101 8.02909091,9.45798319 C6.93818182,10.6134454 6.37090909,12 6.37090909,13.6638655 C6.37090909,15.3277311 6.93818182,16.7142857 8.02909091,17.8697479 C9.12,19.0252101 10.4727273,19.6260504 12,19.6260504 L12,19.6260504 Z M20.8145455,4.37394958 C21.6872727,4.37394958 22.4727273,4.69747899 23.0836364,5.34453782 C23.6945455,5.99159664 24,6.82352941 24,7.74789916 L24,19.6260504 C24,20.5504202 23.6945455,21.3823529 23.0836364,22.0294118 C22.4727273,22.6764706 21.6872727,23 20.8145455,23 L3.18545455,23 C2.31272727,23 1.52727273,22.6764706 0.916363636,22.0294118 C0.305454545,21.3823529 0,20.5504202 0,19.6260504 L0,7.74789916 C0,6.82352941 0.305454545,5.99159664 0.916363636,5.34453782 C1.52727273,4.69747899 2.31272727,4.37394958 3.18545455,4.37394958 L5.97818182,4.37394958 L6.63272727,2.57142857 C6.80727273,2.15546218 7.06909091,1.78571429 7.50545455,1.46218487 C7.94181818,1.13865546 8.37818182,1 8.81454545,1 L15.2290909,1 C15.6654545,1 16.1018182,1.13865546 16.5381818,1.46218487 C16.9745455,1.78571429 17.2363636,2.15546218 17.4109091,2.57142857 L18.0654545,4.37394958 L20.8145455,4.37394958 Z M12,9.87394958 C13.0036364,9.87394958 13.8327273,10.2436975 14.5309091,10.9831933 C15.2290909,11.7226891 15.5781818,12.6470588 15.5781818,13.6638655 C15.5781818,14.6806723 15.2290909,15.605042 14.5309091,16.3445378 C13.8327273,17.0840336 12.96,17.4537815 12,17.4537815 C11.04,17.4537815 10.1672727,17.0840336 9.46909091,16.3445378 C8.77090909,15.605042 8.42181818,14.6806723 8.42181818,13.6638655 C8.42181818,12.6470588 8.77090909,11.7226891 9.46909091,10.9831933 C10.1672727,10.2436975 10.9963636,9.87394958 12,9.87394958 L12,9.87394958 Z" id="Fill-1" fill="#C1C4FF"></path>
    </g>
</svg>