<?xml version="1.0" encoding="utf-8"?>
<!-- Generator: Adobe Illustrator 23.0.6, SVG Export Plug-In . SVG Version: 6.00 Build 0)  -->
<svg version="1.1" id="Layer_1" xmlns="http://www.w3.org/2000/svg" xmlns:xlink="http://www.w3.org/1999/xlink" x="0px" y="0px"
	 viewBox="0 0 24 24" style="enable-background:new 0 0 24 24;" xml:space="preserve">
<title>xhdpi/icon/change</title>
<g>
	<path d="M3.8,15c0.1-0.3,0.3-0.5,0.5-0.6s0.4-0.1,0.6-0.1s0.4,0.2,0.5,0.5L7.7,19c0.2,0.3,0.2,0.5,0.2,0.7s-0.2,0.4-0.4,0.5
		s-0.4,0.1-0.7,0.1l-4-0.4c-0.3,0-0.6-0.2-0.7-0.3S2,19,2.1,18.7L3.8,15z M11.4,13.8V5.6H13v8.2l7,3.5l-0.8,1.3l-7-3.5l-7,3.5
		l-0.8-1.3L11.4,13.8z M12.2,2.3c0.2,0,0.4,0.1,0.6,0.4L15.3,6c0.2,0.2,0.3,0.5,0.3,0.7s-0.1,0.4-0.2,0.5s-0.4,0.2-0.7,0.2H9.8
		c-0.3,0-0.5-0.1-0.7-0.2S8.9,7,8.9,6.7S9,6.3,9.2,6l2.4-3.3C11.8,2.5,12,2.3,12.2,2.3z M22.4,19.5c-0.1,0.2-0.3,0.3-0.7,0.3l-4,0.4
		c-0.3,0-0.5,0-0.7-0.1s-0.3-0.3-0.4-0.5s0-0.4,0.2-0.7l2.4-4.2c0.1-0.3,0.3-0.4,0.5-0.5s0.4,0,0.6,0.1s0.3,0.3,0.5,0.6l1.6,3.7
		C22.5,19,22.5,19.3,22.4,19.5z"/>
</g>
</svg>
