<?xml version="1.0" encoding="UTF-8"?>
<svg width="28px" height="28px" viewBox="0 0 28 28" version="1.1" xmlns="http://www.w3.org/2000/svg" xmlns:xlink="http://www.w3.org/1999/xlink">
    <title>xhdpi/icon/chat_send</title>
    <defs>
        <polygon id="path-1" points="3.20842614e-05 0.0554666667 13.9103725 0.0554666667 13.9103725 14.8328976 3.20842614e-05 14.8328976"></polygon>
    </defs>
    <g id="icon/chat_send" stroke="none" stroke-width="1" fill="none" fill-rule="evenodd">
        <g id="Group-4">
            <g id="Group-6">
                <circle id="Oval" fill="#7540EE" cx="14" cy="14" r="14"></circle>
                <g id="Group-3" transform="translate(7.000000, 4.000000)">
                    <mask id="mask-2" fill="white">
                        <use xlink:href="#path-1"></use>
                    </mask>
                    <g id="Clip-2"></g>
                    <path d="M13.9100569,14.07544 C13.8760176,11.78424 13.9292725,9.49237333 13.8961941,7.20117333 C13.8852137,6.44250667 13.9071745,6.06384 13.7773314,5.42237333 C13.6948412,5.01450667 13.4836059,4.02810667 12.7641157,2.98264 C11.667449,1.38890667 10.106998,0.72384 9.61974314,0.535573333 C9.39725294,0.449573333 8.33531176,0.0523733333 6.95521373,0.0554223382 C5.57525294,0.0523733333 4.51331176,0.449573333 4.29082157,0.535573333 C3.80356667,0.72384 2.24311569,1.38890667 1.14644902,2.98264 C0.426821569,4.02810667 0.21544902,5.01450667 0.132958824,5.42237333 C0.00339019608,6.06384 0.0252137255,6.44250667 0.0142333333,7.20117333 C-0.018845098,9.49237333 0.034272549,11.78424 0.000370588235,14.07544 C-0.00072745098,14.14984 -0.00745294118,14.3913067 0.153821569,14.58704 C0.178390196,14.61664 0.204056863,14.6423733 0.230272549,14.66504 C0.230272549,14.66504 0.347762745,14.76624 0.48762549,14.7955733 C0.678821569,14.8355733 3.29778235,14.8431733 6.95521373,14.8195733 C10.6127824,14.8431733 13.2317431,14.8355733 13.4229392,14.7955733 C13.5626647,14.76624 13.6802922,14.66504 13.6802922,14.66504 C13.7065078,14.6423733 13.7321745,14.61664 13.7564686,14.58704 C13.9180176,14.3913067 13.9112922,14.14984 13.9100569,14.07544" id="Fill-1" fill="#FFFFFF" mask="url(#mask-2)"></path>
                </g>
                <path d="M14.0000692,23.6 C12.1988108,23.6 10.7333333,22.5183142 10.7333333,21.1887612 C10.7333333,20.9740996 10.9691827,20.8 11.2599807,20.8 C11.5507786,20.8 11.786628,20.9740996 11.786628,21.1887612 C11.786628,22.0896041 12.7795762,22.8225798 14.0000692,22.8225798 C15.2205623,22.8225798 16.213372,22.0896041 16.213372,21.1887612 C16.213372,20.9740996 16.4492214,20.8 16.7400193,20.8 C17.0308173,20.8 17.2666667,20.9740996 17.2666667,21.1887612 C17.2666667,22.5183142 15.8011892,23.6 14.0000692,23.6" id="Fill-4" fill="#FFFFFF"></path>
            </g>
        </g>
    </g>
</svg>