<?xml version="1.0" encoding="UTF-8"?>
<svg width="18px" height="18px" viewBox="0 0 18 18" version="1.1" xmlns="http://www.w3.org/2000/svg" xmlns:xlink="http://www.w3.org/1999/xlink">
    <title>xhdpi/icon/chat_thumb_alram</title>
    <defs>
        <polygon id="path-1" points="2.06255966e-05 0.0356571429 8.94238235 0.0356571429 8.94238235 9.53543416 2.06255966e-05 9.53543416"></polygon>
    </defs>
    <g id="icon/chat_thumb_alram" stroke="none" stroke-width="1" fill="none" fill-rule="evenodd">
        <g id="Group-4">
            <rect id="Rectangle" fill="#FFFFFF" x="10" y="0" width="8" height="8"></rect>
            <g id="Group-6">
                <circle id="Oval" fill="#7540EE" cx="9" cy="9" r="9"></circle>
                <g id="Group-3" transform="translate(4.500000, 2.571429)">
                    <mask id="mask-2" fill="white">
                        <use xlink:href="#path-1"></use>
                    </mask>
                    <g id="Clip-2"></g>
                    <path d="M8.94217941,9.04849714 C8.92029706,7.57558286 8.95453235,6.10224 8.93326765,4.62932571 C8.92620882,4.14161143 8.94032647,3.89818286 8.85685588,3.48581143 C8.80382647,3.22361143 8.66803235,2.58949714 8.20550294,1.91741143 C7.50050294,0.892868571 6.49735588,0.465325714 6.18412059,0.344297143 C6.04109118,0.289011429 5.35841471,0.0336685714 4.47120882,0.035628646 C3.58409118,0.0336685714 2.90141471,0.289011429 2.75838529,0.344297143 C2.44515,0.465325714 1.44200294,0.892868571 0.737002941,1.91741143 C0.274385294,2.58949714 0.138502941,3.22361143 0.0854735294,3.48581143 C0.00217941176,3.89818286 0.0162088235,4.14161143 0.00915,4.62932571 C-0.0121147059,6.10224 0.0220323529,7.57558286 0.000238235294,9.04849714 C-0.000467647059,9.09632571 -0.00479117647,9.25155429 0.0988852941,9.37738286 C0.114679412,9.39641143 0.131179412,9.41295429 0.148032353,9.42752571 C0.148032353,9.42752571 0.223561765,9.49258286 0.313473529,9.51144 C0.436385294,9.53715429 2.12000294,9.54204 4.47120882,9.52686857 C6.82250294,9.54204 8.50612059,9.53715429 8.62903235,9.51144 C8.71885588,9.49258286 8.79447353,9.42752571 8.79447353,9.42752571 C8.81132647,9.41295429 8.82782647,9.39641143 8.84344412,9.37738286 C8.94729706,9.25155429 8.94297353,9.09632571 8.94217941,9.04849714" id="Fill-1" fill="#FFFFFF" mask="url(#mask-2)"></path>
                </g>
                <path d="M9.00004449,15.1714286 C7.84209266,15.1714286 6.9,14.4760591 6.9,13.6213465 C6.9,13.4833498 7.05161748,13.3714286 7.23855899,13.3714286 C7.4255005,13.3714286 7.57711798,13.4833498 7.57711798,13.6213465 C7.57711798,14.2004598 8.21544182,14.6716585 9.00004449,14.6716585 C9.78464716,14.6716585 10.422882,14.2004598 10.422882,13.6213465 C10.422882,13.4833498 10.5744995,13.3714286 10.761441,13.3714286 C10.9483825,13.3714286 11.1,13.4833498 11.1,13.6213465 C11.1,14.4760591 10.1579073,15.1714286 9.00004449,15.1714286" id="Fill-4" fill="#FFFFFF"></path>
            </g>
        </g>
    </g>
</svg>