<?xml version="1.0" encoding="UTF-8"?>
<svg width="24px" height="24px" viewBox="0 0 24 24" version="1.1" xmlns="http://www.w3.org/2000/svg" xmlns:xlink="http://www.w3.org/1999/xlink">
    <title>xhdpi/Controls / Check box_on</title>
    <g id="Controls-/-Check-box_on" stroke="none" stroke-width="1" fill="none" fill-rule="evenodd">
        <circle id="Oval" fill="#7540EE" cx="12" cy="12" r="11"></circle>
        <path d="M11.2416992,16.5087891 C11.5488281,16.5087891 11.8144531,16.3676758 12.0136719,16.0605469 L16.5917969,9.31982422 C16.7163086,9.13720703 15.8242188,10.9130859 16.8242188,8.71386719 C17.0084278,8.30875118 16.434082,8 16.0273437,8 C15.7866211,8 15.5458984,8.14111328 15.3632813,8.42333984 L11.2001953,14.6328125 L8.45263672,11.1879883 C8.23681641,10.9140625 8.01269531,10.8144531 7.74707031,10.8144531 C7.34033203,10.8144531 7,11.1381836 7,11.578125 C7,11.7856445 7.08300781,12.0097656 7.22412109,12.184082 L10.4282227,16.0688477 C10.6855469,16.3842773 10.9345703,16.5087891 11.2416992,16.5087891 Z" id="Path" fill="#FFFFFF"></path>
    </g>
</svg>