<?xml version="1.0" encoding="UTF-8"?>
<svg width="24px" height="24px" viewBox="0 0 24 24" version="1.1" xmlns="http://www.w3.org/2000/svg" xmlns:xlink="http://www.w3.org/1999/xlink">
    <title>xhdpi/Controls / Check box</title>
    <g id="Controls-/-Check-box" stroke="none" stroke-width="1" fill="none" fill-rule="evenodd">
        <path d="M11.9174805,23 C5.89367094,23 0.917480469,18.0238095 0.917480469,12 C0.917480469,5.97619048 5.8852224,1 11.9090319,1 C17.9328415,1 22.9174805,5.97619048 22.9174805,12 C22.9174805,18.0238095 17.94129,23 11.9174805,23 Z M11.9174805,21.4285714 C17.1386786,21.4285714 21.3545004,17.2211982 21.3460646,12 C21.3376034,6.77880184 17.1302301,2.57142857 11.9090319,2.57142857 C6.67938523,2.57142857 2.49735758,6.77880184 2.49735758,12 C2.49735758,17.2211982 6.68783377,21.4285714 11.9174805,21.4285714 Z" id="Unselected" fill="#C7C7CC"></path>
        <path d="M11.2416992,16.5087891 C11.5488281,16.5087891 11.8144531,16.3676758 12.0136719,16.0605469 L16.5917969,9.31982422 C16.7163086,9.13720703 15.8242188,10.9130859 16.8242188,8.71386719 C17.0084278,8.30875118 16.434082,8 16.0273437,8 C15.7866211,8 15.5458984,8.14111328 15.3632813,8.42333984 L11.2001953,14.6328125 L8.45263672,11.1879883 C8.23681641,10.9140625 8.01269531,10.8144531 7.74707031,10.8144531 C7.34033203,10.8144531 7,11.1381836 7,11.578125 C7,11.7856445 7.08300781,12.0097656 7.22412109,12.184082 L10.4282227,16.0688477 C10.6855469,16.3842773 10.9345703,16.5087891 11.2416992,16.5087891 Z" id="Path" fill="#D8D8D8"></path>
    </g>
</svg>