<?xml version="1.0" encoding="UTF-8"?>
<svg width="24px" height="24px" viewBox="0 0 24 24" version="1.1" xmlns="http://www.w3.org/2000/svg" xmlns:xlink="http://www.w3.org/1999/xlink">
    <title>xhdpi/icon/close</title>
    <g id="icon/close" stroke="none" stroke-width="1" fill="none" fill-rule="evenodd">
        <path d="M4.85355339,4.14644661 L12.278,11.571 L19.7027958,4.14644661 C19.8980579,3.95118446 20.2146404,3.95118446 20.4099026,4.14644661 C20.6051647,4.34170876 20.6051647,4.65829124 20.4099026,4.85355339 L12.985,12.278 L20.4099026,19.7027958 C20.6051647,19.8980579 20.6051647,20.2146404 20.4099026,20.4099026 C20.2146404,20.6051647 19.8980579,20.6051647 19.7027958,20.4099026 L12.278,12.985 L4.85355339,20.4099026 C4.65829124,20.6051647 4.34170876,20.6051647 4.14644661,20.4099026 C3.95118446,20.2146404 3.95118446,19.8980579 4.14644661,19.7027958 L11.571,12.278 L4.14644661,4.85355339 C3.95118446,4.65829124 3.95118446,4.34170876 4.14644661,4.14644661 C4.34170876,3.95118446 4.65829124,3.95118446 4.85355339,4.14644661 Z" id="Combined-Shape" fill="#2D2D2D"></path>
    </g>
</svg>