<?xml version="1.0" encoding="UTF-8"?>
<svg width="24px" height="24px" viewBox="0 0 24 24" version="1.1" xmlns="http://www.w3.org/2000/svg" xmlns:xlink="http://www.w3.org/1999/xlink">
    <title>xhdpi/icon/customer</title>
    <defs>
        <polygon id="path-1" points="0 0 20 0 20 22 0 22"></polygon>
    </defs>
    <g id="icon/customer" stroke="none" stroke-width="1" fill="none" fill-rule="evenodd">
        <g id="Group-3" transform="translate(2.000000, 1.000000)">
            <mask id="mask-2" fill="white">
                <use xlink:href="#path-1"></use>
            </mask>
            <g id="Clip-2"></g>
            <path d="M6.03980782,7.04488167 C6.03980782,4.82671814 7.81972089,3.02214076 10.0072154,3.02214076 C12.1950619,3.02214076 13.9753269,4.82671814 13.9753269,7.04488167 C13.9753269,8.36985613 13.337205,9.54352727 12.3597839,10.2768487 C11.7227179,10.7546674 10.9424001,11.0440707 10.0952079,11.0629836 C10.0635306,11.0626267 10.0318533,11.0604856 9.99982401,11.0604856 C9.97131443,11.0604856 9.94315682,11.0626267 9.91429527,11.0629836 C9.06780705,11.0430001 8.28784119,10.7525263 7.65147915,10.2743508 C6.67616986,9.5406725 6.03980782,8.36807189 6.03980782,7.04488167 M19.9940165,19.8639114 C19.9676187,18.6902402 19.7437657,17.5651003 19.351671,16.5220353 C19.1968041,16.1095197 19.0169474,15.7091369 18.8121007,15.3244554 C17.9934182,13.7867999 16.7914401,12.4882321 15.3374514,11.5568604 C16.3465498,10.3335875 16.9561621,8.76060405 16.9561621,7.04488167 C16.9561621,3.16024071 13.8387625,0 10.0072154,0 C6.17602027,0 3.0589726,3.16024071 3.0589726,7.04488167 C3.0589726,7.34070818 3.29549654,7.5801528 3.58692783,7.5801528 C3.87835912,7.5801528 4.11488306,7.34070818 4.11488306,7.04488167 C4.11488306,3.75082318 6.75817891,1.07054225 10.0072154,1.07054225 C13.2566038,1.07054225 15.9002517,3.75082318 15.9002517,7.04488167 C15.9002517,8.57218861 15.3272442,9.96317983 14.3934674,11.0205187 C14.138993,11.3092083 13.8574169,11.571848 13.5522588,11.8059399 C12.5642785,12.5638838 11.3390704,13.0192211 10.0072154,13.0192211 C9.7157841,13.0192211 9.47926016,13.2586657 9.47926016,13.5544922 C9.47926016,13.8499619 9.7157841,14.0897633 10.0072154,14.0897633 C11.7579149,14.0897633 13.3548035,13.4249566 14.5778998,12.3379994 C15.7200429,13.0284991 16.697816,13.9680784 17.4369533,15.0832265 C17.6843884,15.4572026 17.9047217,15.8511622 18.0958415,16.2615367 C18.6389314,17.4266435 18.9440895,18.7262818 18.9440895,20.0972896 C18.9440895,20.1040697 18.9437376,20.1108498 18.9433856,20.1179867 C16.7967196,20.5829589 13.8053253,20.9294578 9.99982401,20.9294578 C6.19432272,20.9294578 3.20292839,20.5829589 1.05626243,20.1179867 C1.05626243,20.1108498 1.05591046,20.1040697 1.05591046,20.0972896 C1.05591046,18.7262818 1.36106858,17.4266435 1.90415853,16.2615367 C2.09527832,15.8508053 2.31561164,15.4572026 2.56304665,15.0832265 C3.71328511,13.3478776 5.44181053,12.037177 7.46775073,11.4316069 C8.21392746,11.8776662 9.08047798,12.1381648 10.0072154,12.1381648 C10.9325449,12.1381648 11.7969836,11.8787368 12.5424564,11.4348186 C12.9102652,11.2157143 13.2506203,10.954502 13.5512029,10.6508248 C14.4649174,9.72837424 15.0312374,8.45228788 15.0312374,7.04488167 C15.0312374,4.23649251 12.7775725,1.95159851 10.0072154,1.95159851 C7.23721028,1.95159851 4.98389737,4.23649251 4.98389737,7.04488167 C4.98389737,8.45014679 5.54845749,9.72409207 6.45900428,10.6465426 C4.19654013,11.5158229 2.32370695,13.1905079 1.18789927,15.3244554 C0.983052637,15.7091369 0.803195889,16.1095197 0.648329022,16.5220353 C0.256234271,17.5651003 0.0323812541,18.6902402 0.00563152245,19.8639114 C0.00422364184,19.9417041 0,20.0187832 0,20.0972896 C0,20.3906182 0.0151347166,20.6803783 0.0394206571,20.9676404 C0.387871109,21.0547112 0.751456277,21.1360724 1.12630449,21.2113672 C3.8832867,21.7648376 7.26431199,22 9.99982401,22 C12.7349841,22 16.1167133,21.7648376 18.8736955,21.2113672 C19.2485437,21.1360724 19.6121289,21.0547112 19.9605793,20.9676404 C19.9848653,20.6803783 20,20.3906182 20,20.0972896 C20,20.0187832 19.9957764,19.9417041 19.9940165,19.8639114" id="Fill-1" fill="#2D2D2D" mask="url(#mask-2)"></path>
        </g>
    </g>
</svg>