<?xml version="1.0" encoding="UTF-8"?>
<svg width="18px" height="18px" viewBox="0 0 18 18" version="1.1" xmlns="http://www.w3.org/2000/svg" xmlns:xlink="http://www.w3.org/1999/xlink">
    <title>xhdpi/Fill 1</title>
    <g id="SYMBOLS" stroke="none" stroke-width="1" fill="none" fill-rule="evenodd" fill-opacity="0.6">
        <g id="icon/del" transform="translate(-3.000000, -3.000000)" fill="#000000">
            <path d="M9.63759171,15.551238 L11.9947595,13.1928343 L14.3540235,15.551238 C14.5196227,15.7074862 14.7187609,15.7945237 14.9535344,15.7945237 C15.4241295,15.7945237 15.7888669,15.4295951 15.7888669,14.9598019 C15.7888669,14.7427323 15.702923,14.5413924 15.5446605,14.376755 L13.1780599,12.0089135 L15.5446605,9.63268278 C15.7102597,9.45860763 15.7972517,9.26670551 15.7972517,9.04963589 C15.7972517,8.58823187 15.4325143,8.22225459 14.971352,8.22225459 C14.7365785,8.22225459 14.5542099,8.300903 14.3802259,8.46658899 L11.9947595,10.8428197 L9.61977408,8.47497815 C9.46360778,8.31872997 9.27180622,8.24008156 9.02864796,8.24008156 C8.56748573,8.24008156 8.20170024,8.59662103 8.20170024,9.06641421 C8.20170024,9.27614331 8.28974031,9.48482377 8.45429137,9.64107195 L10.820892,12.0089135 L8.45429137,14.3851442 C8.28974031,14.5413924 8.20170024,14.7500728 8.20170024,14.9598019 C8.20170024,15.4295951 8.56748573,15.7945237 9.02864796,15.7945237 C9.27180622,15.7945237 9.48142541,15.716924 9.63759171,15.551238 M3,12.0005243 C3,7.07398777 7.06241994,3 11.9863748,3 C16.9208105,3 21,7.07398777 21,12.0005243 C21,16.9270609 16.9291953,21 11.9947595,21 C7.0718528,21 3,16.9270609 3,12.0005243" id="Fill-1"></path>
        </g>
    </g>
</svg>