<?xml version="1.0" encoding="UTF-8"?>
<svg width="24px" height="24px" viewBox="0 0 24 24" version="1.1" xmlns="http://www.w3.org/2000/svg" xmlns:xlink="http://www.w3.org/1999/xlink">
    <title>menu/icon/dingdong</title>
    <defs>
        <polygon id="path-1" points="0 0 22 0 22 20.8464882 0 20.8464882"></polygon>
    </defs>
    <g id="menu/icon/dingdong" stroke="none" stroke-width="1" fill="none" fill-rule="evenodd">
        <g id="Group-3" transform="translate(1.000000, 1.000000)">
            <mask id="mask-2" fill="white">
                <use xlink:href="#path-1"></use>
            </mask>
            <g id="Clip-2"></g>
            <path d="M11,18.1176471 C10.3432353,18.1176471 9.702,18.0600588 9.08147059,17.952 C8.36938235,17.8277647 7.68608824,17.6339706 7.03935294,17.3825882 L5.39,18.0500294 L3.52323529,18.8057941 L3.77397059,17.0144118 L3.98426471,15.5093529 C3.56367647,15.1275882 3.18385294,14.7118529 2.85126471,14.267 C1.86773529,12.9518529 1.29411765,11.3862941 1.29411765,9.70588235 C1.29411765,5.06776471 5.64817647,1.29411765 11,1.29411765 C16.3518235,1.29411765 20.7058824,5.06776471 20.7058824,9.70588235 C20.7058824,14.344 16.3518235,18.1176471 11,18.1176471 M11,0 C4.93447059,0 0,4.35405882 0,9.70588235 C0,12.0945 0.984823529,14.2825294 2.6125,15.9752353 L1.93114706,20.8466176 L7.06620588,18.7676176 C8.28882353,19.1823824 9.61432353,19.4117647 11,19.4117647 C17.0655294,19.4117647 22,15.0577059 22,9.70588235 C22,4.35405882 17.0655294,0 11,0" id="Fill-1" fill="#8F8F8F" mask="url(#mask-2)"></path>
        </g>
        <circle id="Oval" fill="#8F8F8F" cx="7" cy="11" r="1"></circle>
        <circle id="Oval-Copy" fill="#8F8F8F" cx="12" cy="11" r="1"></circle>
        <circle id="Oval-Copy-2" fill="#8F8F8F" cx="17" cy="11" r="1"></circle>
    </g>
</svg>