<?xml version="1.0" encoding="UTF-8"?>
<svg width="24px" height="24px" viewBox="0 0 24 24" version="1.1" xmlns="http://www.w3.org/2000/svg" xmlns:xlink="http://www.w3.org/1999/xlink">
    <title>menu/icon/dingdong sel</title>
    <defs>
        <polygon id="path-1" points="6.47058824e-05 6.47058824e-05 22 6.47058824e-05 22 20.8464882 6.47058824e-05 20.8464882"></polygon>
    </defs>
    <g id="menu/icon/dingdong-sel" stroke="none" stroke-width="1" fill="none" fill-rule="evenodd">
        <g id="Group-3" transform="translate(1.000000, 1.000000)">
            <mask id="mask-2" fill="white">
                <use xlink:href="#path-1"></use>
            </mask>
            <g id="Clip-2"></g>
            <path d="M11.0000647,6.47058824e-05 C4.93453529,6.47058824e-05 6.47058824e-05,4.35412353 6.47058824e-05,9.70594706 C6.47058824e-05,12.0942412 0.984564706,14.2825941 2.61256471,15.9753 L1.93121176,20.8466824 L7.06627059,18.7676824 C8.28888824,19.1824471 9.61406471,19.4118294 11.0000647,19.4118294 C17.0655941,19.4118294 22.0000647,15.0577706 22.0000647,9.70594706 C22.0000647,4.35412353 17.0655941,6.47058824e-05 11.0000647,6.47058824e-05" id="Fill-1" fill="#7540EE" mask="url(#mask-2)"></path>
        </g>
        <circle id="Oval" fill="#FFFFFF" cx="7" cy="11" r="1"></circle>
        <circle id="Oval-Copy" fill="#FFFFFF" cx="12" cy="11" r="1"></circle>
        <circle id="Oval-Copy-2" fill="#FFFFFF" cx="17" cy="11" r="1"></circle>
    </g>
</svg>