<svg width="63" height="90" viewBox="0 0 63 90" fill="none" xmlns="http://www.w3.org/2000/svg">
<path fill-rule="evenodd" clip-rule="evenodd" d="M62.187 64.5219C62.0352 53.9771 62.273 43.4305 62.125 32.8861C62.0761 29.3947 62.1743 27.6515 61.5939 24.6996C61.225 22.8221 60.2808 18.2821 57.0638 13.471C52.161 6.13708 45.1848 3.07567 43.0064 2.20904C42.0115 1.81332 37.2638 -0.0139378 31.0945 8.02235e-05C24.9247 -0.0139378 20.1774 1.81332 19.1825 2.20904C17.0042 3.07567 10.0279 6.13708 5.12512 13.471C1.90815 18.2821 0.963033 22.8221 0.594574 24.6996C0.014626 27.6515 0.11285 29.3947 0.0635031 32.8861C-0.0845387 43.4305 0.153266 53.9771 0.00146464 64.5219C-0.00323506 64.8646 -0.0337812 65.9756 0.688099 66.877C0.797133 67.0128 0.912274 67.1317 1.02883 67.2356C1.02883 67.2356 1.55473 67.7013 2.17979 67.8362C3.03468 68.02 14.7431 68.0552 31.0945 67.9462C47.4458 68.0552 59.1543 68.02 60.0091 67.8362C60.6337 67.7013 61.1596 67.2356 61.1596 67.2356C61.2767 67.1317 61.3918 67.0128 61.5004 66.877C62.2227 65.9756 62.1922 64.8646 62.187 64.5219Z" fill="#7540EE"/>
<path fill-rule="evenodd" clip-rule="evenodd" d="M31.1614 89.9469C23.1756 89.9469 16.6792 83.4504 16.6792 75.4656C16.6792 74.176 17.7244 73.1307 19.0135 73.1307C20.3031 73.1307 21.3483 74.176 21.3483 75.4656C21.3483 80.8759 25.7506 85.2777 31.1614 85.2777C36.5722 85.2777 40.974 80.8759 40.974 75.4656C40.974 74.176 42.0192 73.1307 43.3083 73.1307C44.598 73.1307 45.6432 74.176 45.6432 75.4656C45.6432 83.4504 39.1463 89.9469 31.1614 89.9469Z" fill="#FFD400"/>
</svg>
