<?xml version="1.0" encoding="UTF-8"?>
<svg width="20px" height="20px" viewBox="0 0 20 20" version="1.1" xmlns="http://www.w3.org/2000/svg" xmlns:xlink="http://www.w3.org/1999/xlink">
    <title>xhdpi/icon/edit_thumbnail</title>
    <defs>
        <polygon id="path-1" points="0 0 16 0 16 14.3157895 0 14.3157895"></polygon>
    </defs>
    <g id="icon/edit_thumbnail" stroke="none" stroke-width="1" fill="none" fill-rule="evenodd">
        <g id="Group-3" transform="translate(2.000000, 3.000000)">
            <mask id="mask-2" fill="white">
                <use xlink:href="#path-1"></use>
            </mask>
            <g id="Clip-2"></g>
            <path d="M8,12.1203008 C9.01818182,12.1203008 9.92,11.7293233 10.6472727,10.9774436 C11.3745455,10.2255639 11.7527273,9.32330827 11.7527273,8.2406015 C11.7527273,7.15789474 11.3745455,6.2556391 10.6472727,5.5037594 C9.92,4.7518797 9.04727273,4.36090226 8,4.36090226 C6.98181818,4.36090226 6.08,4.7518797 5.35272727,5.5037594 C4.62545455,6.2556391 4.24727273,7.15789474 4.24727273,8.2406015 C4.24727273,9.32330827 4.62545455,10.2255639 5.35272727,10.9774436 C6.08,11.7293233 6.98181818,12.1203008 8,12.1203008 L8,12.1203008 Z M13.8763636,2.19548872 C14.4581818,2.19548872 14.9818182,2.40601504 15.3890909,2.82706767 C15.7963636,3.2481203 16,3.78947368 16,4.39097744 L16,12.1203008 C16,12.7218045 15.7963636,13.2631579 15.3890909,13.6842105 C14.9818182,14.1052632 14.4581818,14.3157895 13.8763636,14.3157895 L2.12363636,14.3157895 C1.54181818,14.3157895 1.01818182,14.1052632 0.610909091,13.6842105 C0.203636364,13.2631579 0,12.7218045 0,12.1203008 L0,4.39097744 C0,3.78947368 0.203636364,3.2481203 0.610909091,2.82706767 C1.01818182,2.40601504 1.54181818,2.19548872 2.12363636,2.19548872 L3.98545455,2.19548872 L4.42181818,1.02255639 C4.53818182,0.751879699 4.71272727,0.511278195 5.00363636,0.30075188 C5.29454545,0.0902255639 5.58545455,0 5.87636364,0 L10.1527273,0 C10.4436364,0 10.7345455,0.0902255639 11.0254545,0.30075188 C11.3163636,0.511278195 11.4909091,0.751879699 11.6072727,1.02255639 L12.0436364,2.19548872 L13.8763636,2.19548872 Z M8,5.77443609 C8.66909091,5.77443609 9.22181818,6.01503759 9.68727273,6.4962406 C10.1527273,6.97744361 10.3854545,7.57894737 10.3854545,8.2406015 C10.3854545,8.90225564 10.1527273,9.5037594 9.68727273,9.98496241 C9.22181818,10.4661654 8.64,10.7067669 8,10.7067669 C7.36,10.7067669 6.77818182,10.4661654 6.31272727,9.98496241 C5.84727273,9.5037594 5.61454545,8.90225564 5.61454545,8.2406015 C5.61454545,7.57894737 5.84727273,6.97744361 6.31272727,6.4962406 C6.77818182,6.01503759 7.33090909,5.77443609 8,5.77443609 L8,5.77443609 Z" id="Fill-1" fill="#FFFFFF" mask="url(#mask-2)"></path>
        </g>
    </g>
</svg>