<?xml version="1.0" encoding="UTF-8"?>
<svg width="28px" height="28px" viewBox="0 0 28 28" version="1.1" xmlns="http://www.w3.org/2000/svg" xmlns:xlink="http://www.w3.org/1999/xlink">
    <title>xhdpi/icon/home/group</title>
    <defs>
        <polygon id="path-1" points="0 0.656424242 23.2715364 0.656424242 23.2715364 23.6564242 0 23.6564242"></polygon>
        <polygon id="path-3" points="0.0828848485 0.252712121 19.2797879 0.252712121 19.2797879 17.7272727 0.0828848485 17.7272727"></polygon>
    </defs>
    <g id="icon/home/group" stroke="none" stroke-width="1" fill="none" fill-rule="evenodd">
        <g id="Group-7" transform="translate(1.000000, -1.000000)">
            <g id="Group-3" transform="translate(0.000000, 0.310858)">
                <mask id="mask-2" fill="white">
                    <use xlink:href="#path-1"></use>
                </mask>
                <g id="Clip-2"></g>
                <path d="M5.5828697,21.3191818 L5.56908182,21.3250909 L3.57141515,22.1334545 L3.84559697,20.1728182 L3.84756667,20.1602121 L4.04020303,18.7814242 L4.04217273,18.7684242 C3.66477879,18.4174242 3.3169303,18.042 3.00611212,17.6433333 C1.85699091,16.1703939 1.18532424,14.395303 1.18532424,12.4862727 C1.18532424,11.6928788 1.30153636,10.9227273 1.51977879,10.1876364 C2.70356667,6.21712121 6.86632424,3.2759697 11.8051424,3.2759697 C16.2349909,3.2759697 20.0380818,5.64275758 21.6299909,8.99518182 C22.2122333,9.28748485 22.7621727,9.62548485 23.2715364,10.0060303 C22.0058091,5.46390909 17.3478697,2.08312121 11.8086879,2.08312121 C6.31520303,2.08312121 1.68641515,5.40639394 0.374990909,9.89178788 C0.130354545,10.7245758 -3.93939395e-05,11.5979394 -3.93939395e-05,12.497303 C-3.93939395e-05,15.0500303 1.05059697,17.3892424 2.7878697,19.2013636 L2.25880909,22.9835758 C2.22965758,23.1927576 2.31396061,23.4011515 2.48059697,23.5311515 C2.58656667,23.6134848 2.71459697,23.6564242 2.84420303,23.6564242 C2.91905152,23.6564242 2.99429394,23.6418485 3.06559697,23.6130909 L6.92147576,22.052303 C6.71426364,21.7139091 6.53068788,21.3625152 6.36917273,21.0008788 L5.5828697,21.3191818 Z" id="Fill-1" stroke="#979797" stroke-width="0.3" fill="#8F8F8F" mask="url(#mask-2)"></path>
            </g>
            <g id="Group-6" transform="translate(6.696970, 9.007827)">
                <mask id="mask-4" fill="white">
                    <use xlink:href="#path-3"></use>
                </mask>
                <g id="Clip-5"></g>
                <path d="M16.8339758,12.5491364 C16.5349758,12.9671061 16.1906727,13.3567121 15.8034303,13.7132273 L15.9972485,15.0975303 L16.1520667,16.2045 L15.0368242,15.7534394 L13.6009152,15.1719848 C13.0927333,15.404803 12.5530364,15.5911364 11.990097,15.7305909 C11.2554,15.9125909 10.4828848,16.016197 9.68161212,16.016197 C5.04061212,16.016197 1.26470303,12.7453182 1.26470303,8.72516667 C1.26470303,4.70501515 5.04061212,1.4345303 9.68161212,1.4345303 C14.3226121,1.4345303 18.0981273,4.70501515 18.0981273,8.72516667 C18.0981273,10.1279848 17.6301273,11.4358636 16.8339758,12.5491364 L16.8339758,12.5491364 Z M17.0565515,14.1406515 C18.4440061,12.6712576 19.2799455,10.7831061 19.2799455,8.72516667 C19.2799455,4.05343939 14.9737939,0.252712121 9.68161212,0.252712121 C9.18524848,0.252712121 8.69794545,0.28619697 8.22167273,0.350409091 C7.74579394,0.415015152 7.28094545,0.509954545 6.82988485,0.634439394 C6.68018788,0.675409091 6.53167273,0.720318182 6.38473333,0.767984848 C2.71085455,1.95728788 0.0828848485,5.07492424 0.0828848485,8.72516667 C0.0828848485,9.01707576 0.0998242424,9.30583333 0.132521212,9.59025758 C0.165218182,9.87468182 0.214066667,10.1551667 0.278278788,10.4305303 C0.310187879,10.5684091 0.346036364,10.7047121 0.385430303,10.8402273 C0.504006061,11.2455909 0.656066667,11.6399242 0.838460606,12.0196818 C0.959793939,12.2733788 1.09491515,12.5203788 1.24303636,12.7602879 C1.39076364,13.0005909 1.55149091,13.2334091 1.7244303,13.4591364 C1.81030909,13.571803 1.90012727,13.6825 1.99191515,13.7912273 C2.17667273,14.0086818 2.37246061,14.2182576 2.57927879,14.4191667 C3.50976364,15.3224697 4.65730909,16.0481061 5.94864242,16.5306818 C6.23582424,16.6386212 6.53009697,16.7335606 6.82988485,16.8162879 C7.73161212,17.0644697 8.68888485,17.1980152 9.68161212,17.1980152 C11.0816727,17.1980152 12.4120061,16.9293485 13.6127333,16.4515 L16.6574909,17.6841364 C16.7287939,17.7128939 16.8040364,17.7274697 16.8788848,17.7274697 C17.0084909,17.7274697 17.1369152,17.6845303 17.2424909,17.602197 C17.4087333,17.472197 17.4934303,17.263803 17.4642788,17.0546212 L17.0565515,14.1406515 Z" id="Fill-4" stroke="#979797" stroke-width="0.3" fill="#8F8F8F" mask="url(#mask-4)"></path>
            </g>
        </g>
    </g>
</svg>