<?xml version="1.0" encoding="UTF-8"?>
<svg width="28px" height="28px" viewBox="0 0 28 28" version="1.1" xmlns="http://www.w3.org/2000/svg" xmlns:xlink="http://www.w3.org/1999/xlink">
    <title>xhdpi/icon/home/edit</title>
    <defs>
        <polygon id="path-1" points="-5.11569953e-13 25 25 25 25 0 -1.73472348e-16 0"></polygon>
    </defs>
    <g id="icon/home/edit" stroke="none" stroke-width="1" fill="none" fill-rule="evenodd">
        <g id="Group-5" transform="translate(1.000000, 1.000000)">
            <path d="M23.1555818,7.28080109 C23.1123296,7.31356821 23.0716988,7.35026738 23.0336894,7.38827724 L22.823982,7.59798679 L19.4018202,4.17578903 L19.6102168,3.96739016 C19.649537,3.92806962 19.6862358,3.88612771 19.7190025,3.8441858 C20.0283209,3.44573765 21.1672939,2.3106847 22.3049563,2.3106847 C22.8462634,2.3106847 23.3665998,2.56888959 23.8987322,3.10102758 C24.4623207,3.66331131 24.7205229,4.21904163 24.6864454,4.79705358 C24.6235332,5.89016462 23.5566471,6.96361539 23.1555818,7.28080109 L23.1555818,7.28080109 Z M6.65423449,23.767904 L2.5793585,24.4193142 L3.23207263,20.3457062 L18.52236,5.05525847 L21.9445218,8.47745622 L6.65423449,23.767904 Z M24.8253766,2.17437349 C23.9616444,1.30932159 23.0992229,1 22.3049563,1 C20.2694843,1 18.6835725,3.04073608 18.6835725,3.04073608 L2.00397395,19.7191989 L1,26 L7.2807352,24.9960155 L23.9603337,8.31493132 C23.9603337,8.31493132 27.902832,5.25186117 24.8253766,2.17437349 L24.8253766,2.17437349 Z" id="Fill-1" fill="#8F8F8F"></path>
            <mask id="mask-2" fill="white">
                <use xlink:href="#path-1"></use>
            </mask>
            <g id="Clip-4"></g>
        </g>
    </g>
</svg>