<?xml version="1.0" encoding="UTF-8"?>
<svg width="28px" height="28px" viewBox="0 0 28 28" version="1.1" xmlns="http://www.w3.org/2000/svg" xmlns:xlink="http://www.w3.org/1999/xlink">
    <title>xhdpi/icon/home/call</title>
    <defs>
        <polygon id="path-1" points="0 0 24 0 24 24 0 24"></polygon>
    </defs>
    <g id="icon/home/call" stroke="none" stroke-width="1" fill="none" fill-rule="evenodd">
        <g id="Group-3" transform="translate(2.000000, 2.000000)">
            <mask id="mask-2" fill="white">
                <use xlink:href="#path-1"></use>
            </mask>
            <g id="Clip-2"></g>
            <path d="M21.5238609,20.9544758 C21.5734699,20.8789847 21.6122944,20.8401608 21.674845,20.7646697 C22.1062281,20.2966253 22.3197627,19.8307377 22.3197627,19.4123017 C22.3197627,19.0089638 22.1558372,18.6660188 21.7395524,18.4007217 L18.0857374,15.9504983 C17.6176867,15.6334359 17.0870855,15.5838275 16.5694257,16.1014804 L15.5470477,17.136786 C14.7878134,17.8960102 13.8150445,17.8701276 13.0558102,17.3524747 C12.1714748,16.7463895 10.7177137,15.5083365 9.56807765,14.3457745 C8.43138312,13.1939969 7.25586411,11.8308444 6.64977083,10.9443639 C6.12995417,10.1872966 6.10622809,9.21454065 6.86330547,8.45531648 L7.90078188,7.43079523 C8.41844163,6.91314239 8.36667565,6.38254822 8.05176597,5.91450377 L5.59935293,2.26289434 C5.33405231,1.84661518 4.99325964,1.68053489 4.5877595,1.68053489 C4.18441628,1.68053489 3.7034241,1.89622358 3.23537342,2.32544406 C3.17282286,2.37720934 3.1232138,2.42681774 3.04772176,2.47858302 C2.02318684,3.42545635 1.54219466,4.6635094 1.52925317,6.06764274 C1.4925856,9.30297301 3.99460771,13.4355682 7.33135616,16.7593308 C10.6422216,20.0830935 14.6734969,22.5095912 17.8959288,22.4707672 C19.323807,22.4578259 20.5769749,21.978997 21.5238609,20.9544758 M6.20544621,17.7946365 C2.30142896,13.8906713 0,9.61787849 0,6.06764274 C0,4.07036552 0.582367215,2.60368246 1.9476948,1.33974677 C2.03612834,1.26425573 2.11162038,1.18876469 2.18711243,1.12621497 C2.99595578,0.3669908 3.84362362,-0.0126212854 4.61364249,0.000320035703 C5.43542734,0.0262026779 6.19466163,0.468364482 6.85036398,1.42817913 L9.37826908,5.09272989 C10.0986789,6.13019246 10.2129954,7.35530419 9.13885144,8.45531648 L8.22863305,9.37846405 C7.95039094,9.65670246 7.90078188,9.95866662 8.08843354,10.3016116 C8.59530871,11.1859352 9.43003505,12.1328086 10.6055541,13.3083119 C11.679698,14.3824415 13.0816932,15.5320622 13.700728,15.9116743 C14.0415206,16.1014804 14.3456457,16.051872 14.6238878,15.7736336 L15.5470477,14.8634273 C16.6449178,13.7892977 17.8722028,13.9014558 18.9075222,14.621856 L22.5721219,17.1497274 C23.5341062,17.8075779 24,18.566802 24,19.386419 C24,20.1585845 23.6354813,20.9932997 22.876247,21.8129167 C22.8136964,21.8905647 22.7360475,21.9660557 22.6605554,22.0544881 C21.3858183,23.4305819 19.9061742,24 17.8851442,24 C14.3585872,24 10.0986789,21.674876 6.20544621,17.7946365" id="Fill-1" fill="#8F8F8F" mask="url(#mask-2)"></path>
        </g>
    </g>
</svg>