<?xml version="1.0" encoding="UTF-8"?>
<svg width="28px" height="28px" viewBox="0 0 28 28" version="1.1" xmlns="http://www.w3.org/2000/svg" xmlns:xlink="http://www.w3.org/1999/xlink">
    <title>xhdpi/icon/home/web</title>
    <defs>
        <polygon id="path-1" points="0.000216666667 0.00065 23.855 0.00065 23.855 23.8552167 0.000216666667 23.8552167"></polygon>
    </defs>
    <g id="icon/home/web" stroke="none" stroke-width="1" fill="none" fill-rule="evenodd">
        <g id="Group-3" transform="translate(2.000000, 2.000000)">
            <mask id="mask-2" fill="white">
                <use xlink:href="#path-1"></use>
            </mask>
            <g id="Clip-2"></g>
            <path d="M20.30405,18.45805 C19.4763833,17.8557167 18.4732167,17.3487167 17.32055,16.96305 C17.7993833,15.5807167 18.0853833,14.1008833 18.14605,12.5538833 L22.53355,12.5538833 C22.4013833,14.77905 21.5953833,16.8048833 20.30405,18.45805 L20.30405,18.45805 Z M13.9492167,22.3927167 C15.1473833,21.1923833 16.1332167,19.7537167 16.85255,18.1417167 C17.8773833,18.4818833 18.77005,18.9217167 19.4958833,19.4352167 C18.01605,20.9302167 16.0963833,21.9788833 13.9492167,22.3927167 L13.9492167,22.3927167 Z M4.34005,19.41355 C5.07021667,18.9022167 5.96288333,18.4667167 6.98771667,18.1287167 C7.70705,19.7472167 8.69721667,21.1902167 9.89321667,22.3927167 C7.74388333,21.9767167 5.82205,20.9172167 4.34005,19.41355 L4.34005,19.41355 Z M1.31971667,12.5538833 L5.69855,12.5538833 C5.76138333,14.0943833 6.04305,15.57205 6.52188333,16.95005 C5.36705,17.33355 4.36388333,17.8362167 3.53188333,18.4342167 C2.24921667,16.78755 1.45188333,14.7682167 1.31971667,12.5538833 L1.31971667,12.5538833 Z M3.53188333,5.41905 C4.36388333,6.01921667 5.36705,6.52188333 6.52188333,6.90538333 C6.04521667,8.28338333 5.76138333,9.75888333 5.69855,11.2993833 L1.31971667,11.2993833 C1.45188333,9.08721667 2.24921667,7.07005 3.53188333,5.41905 L3.53188333,5.41905 Z M9.89321667,1.46271667 C8.69721667,2.66521667 7.70705,4.10821667 6.98771667,5.72671667 C5.96288333,5.38871667 5.07238333,4.95321667 4.34005,4.44188333 C5.82205,2.94038333 7.74388333,1.88088333 9.89321667,1.46271667 L9.89321667,1.46271667 Z M19.4958833,4.42021667 C18.77005,4.93371667 17.8773833,5.37355 16.85255,5.71588333 C16.1332167,4.10388333 15.1473833,2.66305 13.9492167,1.46055 C16.0963833,1.87655 18.01605,2.92738333 19.4958833,4.42021667 L19.4958833,4.42021667 Z M12.55605,11.2993833 L12.55605,7.71788333 C13.8148833,7.67455 15.0238833,7.53588333 16.1223833,7.26721667 C16.5643833,8.52821667 16.8287167,9.88455 16.89155,11.2993833 L12.55605,11.2993833 Z M12.55605,17.39205 C13.63505,17.4332167 14.6793833,17.5567167 15.6413833,17.78205 C14.8873833,19.4178833 13.83655,20.85655 12.55605,22.0048833 L12.55605,17.39205 Z M11.2993833,6.46555 C10.21605,6.42655 9.16521667,6.30955 8.20105,6.08421667 C8.95505,4.43971667 10.0123833,2.99455 11.2993833,1.84621667 L11.2993833,6.46555 Z M15.6413833,6.07338333 C14.6793833,6.29871667 13.63505,6.42221667 12.55605,6.46338333 L12.55605,1.85271667 C13.83655,2.99888333 14.8873833,4.43755 15.6413833,6.07338333 L15.6413833,6.07338333 Z M7.72005,7.27588333 C8.82505,7.54021667 10.03405,7.68105 11.2993833,7.72221667 L11.2993833,11.2993833 L6.95521667,11.2993833 C7.01805,9.88671667 7.28021667,8.53471667 7.72005,7.27588333 L7.72005,7.27588333 Z M6.95521667,12.5538833 L11.2993833,12.5538833 L11.2993833,16.1332167 C10.03405,16.1722167 8.82505,16.3152167 7.72005,16.57955 C7.28021667,15.3207167 7.01588333,13.9687167 6.95521667,12.5538833 L6.95521667,12.5538833 Z M8.20105,17.7712167 C9.16521667,17.5458833 10.21605,17.4267167 11.2993833,17.3898833 L11.2993833,22.0113833 C10.0123833,20.8608833 8.95505,19.41355 8.20105,17.7712167 L8.20105,17.7712167 Z M16.1223833,16.5882167 C15.0238833,16.3217167 13.8148833,16.1787167 12.55605,16.13755 L12.55605,12.5538833 L16.89155,12.5538833 C16.8287167,13.9708833 16.5643833,15.32505 16.1223833,16.5882167 L16.1223833,16.5882167 Z M22.53355,11.2993833 L18.14605,11.2993833 C18.0853833,9.75238333 17.7993833,8.27471667 17.32055,6.89455 C18.4732167,6.50671667 19.4763833,5.99971667 20.30405,5.39738333 C21.5953833,7.05055 22.4013833,9.07638333 22.53355,11.2993833 L22.53355,11.2993833 Z M23.8227167,11.2993833 C23.6883833,8.75788333 22.7653833,6.42871667 21.2833833,4.55238333 C21.0212167,4.22088333 20.7438833,3.90021667 20.44705,3.59905 C18.6877167,1.79855 16.3672167,0.56355 13.7693833,0.158383333 C13.3707167,0.09555 12.96555,0.0522166667 12.55605,0.0327166667 C12.45855,0.0262166667 12.36105,0.0197166667 12.26355,0.01755 C12.1508833,0.0132166667 12.0403833,0.000216666667 11.9277167,0.000216666667 C11.8107167,0.000216666667 11.69805,0.0132166667 11.5832167,0.01755 C11.4878833,0.0197166667 11.39255,0.0262166667 11.2993833,0.0327166667 C10.88555,0.0543833333 10.4782167,0.09555 10.0773833,0.158383333 C7.47305,0.567883333 5.14171667,1.81371667 3.38238333,3.62505 C3.08771667,3.92838333 2.81038333,4.24905 2.55038333,4.58271667 C1.07921667,6.45471667 0.164883333,8.77305 0.0327166667,11.2993833 C0.0218833333,11.5073833 0.000216666667,11.7153833 0.000216666667,11.9277167 C0.000216666667,12.14005 0.0218833333,12.3458833 0.0327166667,12.5538833 C0.164883333,15.0802167 1.07921667,17.4007167 2.55038333,19.2727167 C2.81038333,19.6063833 3.08771667,19.92705 3.38238333,20.2303833 C5.14171667,22.0417167 7.47305,23.28755 10.07955,23.69705 C10.4803833,23.7598833 10.88555,23.8032167 11.2993833,23.8248833 C11.39255,23.8292167 11.4857167,23.83355 11.58105,23.8378833 C11.69805,23.84005 11.8107167,23.8552167 11.9277167,23.8552167 C12.0403833,23.8552167 12.1508833,23.84005 12.26355,23.8378833 C12.36105,23.8357167 12.45855,23.8292167 12.55605,23.8248833 C12.96555,23.8032167 13.36855,23.7598833 13.7672167,23.6992167 C16.36505,23.2918833 18.6877167,22.0568833 20.4492167,20.2563833 C20.7438833,19.9552167 21.0212167,19.63455 21.2833833,19.3052167 C22.7653833,17.42455 23.6883833,15.0953833 23.8227167,12.5538833 C23.83355,12.3458833 23.8552167,12.14005 23.8552167,11.9277167 C23.8552167,11.7153833 23.83355,11.5073833 23.8227167,11.2993833 L23.8227167,11.2993833 Z" id="Fill-1" fill="#8F8F8F" mask="url(#mask-2)"></path>
        </g>
    </g>
</svg>