<?xml version="1.0" encoding="UTF-8"?>
<svg width="28px" height="28px" viewBox="0 0 28 28" version="1.1" xmlns="http://www.w3.org/2000/svg" xmlns:xlink="http://www.w3.org/1999/xlink">
    <title>xhdpi/icon/home/chat_alram</title>
    <defs>
        <polygon id="path-1" points="0 0 24 0 24 22.7416235 0 22.7416235"></polygon>
        <polygon id="path-3" points="0 0.333333333 9.99988793 0.333333333 9.99988793 11.6132 0 11.6132"></polygon>
    </defs>
    <g id="icon/home/chat_alram" stroke="none" stroke-width="1" fill="none" fill-rule="evenodd">
        <g id="Group-3" transform="translate(2.000000, 3.000000)">
            <mask id="mask-2" fill="white">
                <use xlink:href="#path-1"></use>
            </mask>
            <g id="Clip-2"></g>
            <path d="M12,19.7647059 C11.2835294,19.7647059 10.584,19.7018824 9.90705882,19.584 C9.13023529,19.4484706 8.38482353,19.2370588 7.67929412,18.9628235 L5.88,19.6909412 L3.84352941,20.5154118 L4.11705882,18.5611765 L4.34647059,16.9192941 C3.88764706,16.5028235 3.47329412,16.0492941 3.11047059,15.564 C2.03752941,14.1292941 1.41176471,12.4214118 1.41176471,10.5882353 C1.41176471,5.52847059 6.16164706,1.41176471 12,1.41176471 C17.8383529,1.41176471 22.5882353,5.52847059 22.5882353,10.5882353 C22.5882353,15.648 17.8383529,19.7647059 12,19.7647059 M12,0 C5.38305882,0 0,4.74988235 0,10.5882353 C0,13.194 1.07435294,15.5809412 2.85,17.4275294 L2.10670588,22.7417647 L7.70858824,20.4737647 C9.04235294,20.9262353 10.4883529,21.1764706 12,21.1764706 C18.6169412,21.1764706 24,16.4265882 24,10.5882353 C24,4.74988235 18.6169412,0 12,0" id="Fill-1" fill="#8F8F8F" mask="url(#mask-2)"></path>
        </g>
        <g id="Group-6" transform="translate(16.000000, 11.000000)">
            <g id="Group-3">
                <mask id="mask-4" fill="white">
                    <use xlink:href="#path-3"></use>
                </mask>
                <g id="Clip-2"></g>
            </g>
            <path d="M5,-1 C3.34314575,-1 1.84314575,-0.328427125 0.757359313,0.757359313 C-0.328427125,1.84314575 -1,3.34314575 -1,5 L-1,11 C-1,11.5522847 -0.776142375,12.0522847 -0.414213562,12.4142136 C-0.0522847498,12.7761424 0.44771525,13 1,13 L9,13 C9.55228475,13 10.0522847,12.7761424 10.4142136,12.4142136 C10.7761424,12.0522847 11,11.5522847 11,11 L11,5 C11,3.34314575 10.3284271,1.84314575 9.24264069,0.757359313 C8.15685425,-0.328427125 6.65685425,-1 5,-1 Z" id="Rectangle" stroke="#FFFFFF" stroke-width="2"></path>
            <circle id="Oval" stroke="#979797" stroke-width="1.3" cx="5" cy="13" r="2"></circle>
            <path d="M5,0 C7.76142375,-5.07265313e-16 10,2.23857625 10,5 L10,11 C10,11.5522847 9.55228475,12 9,12 L1,12 C0.44771525,12 6.76353751e-17,11.5522847 0,11 L0,5 C-3.38176876e-16,2.23857625 2.23857625,5.07265313e-16 5,0 Z" id="Rectangle" stroke="#979797" stroke-width="1.3" fill="#FFFFFF"></path>
        </g>
    </g>
</svg>