<?xml version="1.0" encoding="UTF-8"?>
<svg width="20px" height="19px" viewBox="0 0 20 19" version="1.1" xmlns="http://www.w3.org/2000/svg" xmlns:xlink="http://www.w3.org/1999/xlink">
    <title>xxxhdpi/icon/like</title>
    <g id="계정" stroke="none" stroke-width="1" fill="none" fill-rule="evenodd">
        <g id="46_계정상세_상품소개" transform="translate(-323.000000, -469.000000)" fill="#000000">
            <g id="Fill-1" transform="translate(321.000000, 466.000000)">
                <path d="M16.475,3 C14.641,3 12.816,4.088 11.995,5.784 C11.184,4.088 9.36,3 7.526,3 C4.358,3 2,5.443 2,8.845 C2,13.101 6.043,17.261 11.579,20.962 C11.707,21.038 11.867,21.101 11.995,21.101 C12.134,21.101 12.294,21.038 12.411,20.962 C17.958,17.261 22,13.101 22,8.845 C22,5.443 19.643,3 16.475,3 M16.475,4.3 C18.963,4.3 20.701,6.169 20.701,8.845 C20.701,12.078 17.684,15.824 11.996,19.676 C6.305,15.812 3.3,12.071 3.3,8.845 C3.3,6.169 5.038,4.3 7.526,4.3 C8.891,4.3 10.246,5.141 10.822,6.345 L11.988,8.783 L13.165,6.351 C13.75,5.143 15.111,4.3 16.475,4.3"></path>
            </g>
        </g>
    </g>
</svg>