<?xml version="1.0" encoding="UTF-8"?>
<svg width="24px" height="24px" viewBox="0 0 24 24" version="1.1" xmlns="http://www.w3.org/2000/svg" xmlns:xlink="http://www.w3.org/1999/xlink">
    <title>xhdpi/icon/mail</title>
    <defs>
        <polygon id="path-1" points="0 0.0003 22 0.0003 22 17.7064 0 17.7064"></polygon>
    </defs>
    <g id="icon/mail" stroke="none" stroke-width="1" fill="none" fill-rule="evenodd">
        <g id="Group-3" transform="translate(1.000000, 3.000000)">
            <mask id="mask-2" fill="white">
                <use xlink:href="#path-1"></use>
            </mask>
            <g id="Clip-2"></g>
            <path d="M13.8588,9.0804 L21.0008,1.9394 L21.0008,16.2224 L13.8588,9.0804 Z M1.9288,16.7064 L8.8478,9.7874 L9.7878,10.7264 C10.1218,11.0614 10.5608,11.2284 10.9998,11.2284 C11.4398,11.2284 11.8788,11.0604 12.2128,10.7264 L13.1518,9.7874 L20.0718,16.7064 L1.9288,16.7064 Z M0.9998,1.9394 L8.1408,9.0804 L0.9998,16.2224 L0.9998,1.9394 Z M20.5258,0.9994 L13.1518,8.3734 L12.4448,9.0804 L11.5048,10.0194 C11.2268,10.2984 10.7728,10.2984 10.4948,10.0194 L9.5548,9.0804 L8.8478,8.3734 L1.4748,0.9994 L20.5258,0.9994 Z M21.9798,0.9594 C21.9428,0.5904 21.7238,0.2794 21.4058,0.1204 C21.2628,0.0484 21.1098,-0.0006 20.9408,-0.0006 L1.0598,-0.0006 C0.8908,-0.0006 0.7368,0.0484 0.5948,0.1204 C0.2758,0.2794 0.0568,0.5904 0.0208,0.9594 C0.0168,0.9944 -0.0002,1.0244 -0.0002,1.0594 L-0.0002,16.6484 C-0.0002,16.8144 0.0468,16.9664 0.1158,17.1064 C0.2728,17.4254 0.5828,17.6454 0.9508,17.6854 C0.9888,17.6894 1.0208,17.7064 1.0598,17.7064 L20.9408,17.7064 C20.9788,17.7064 21.0108,17.6894 21.0488,17.6854 C21.4178,17.6454 21.7278,17.4254 21.8838,17.1064 C21.9538,16.9664 22.0008,16.8144 22.0008,16.6484 L22.0008,1.0594 C22.0008,1.0244 21.9828,0.9944 21.9798,0.9594 L21.9798,0.9594 Z" id="Fill-1" fill="#2D2D2D" mask="url(#mask-2)"></path>
        </g>
    </g>
</svg>