<?xml version="1.0" encoding="UTF-8"?>
<svg width="20px" height="30px" viewBox="0 0 20 30" version="1.1" xmlns="http://www.w3.org/2000/svg" xmlns:xlink="http://www.w3.org/1999/xlink">
    <title>xhdpi/Group 8 Copy</title>
    <defs>
        <polygon id="path-1" points="0.0003 0.429 20 0.429 20 29 0.0003 29"></polygon>
    </defs>
    <g id="계정관리" stroke="none" stroke-width="1" fill="none" fill-rule="evenodd">
        <g id="계정설정_추가정보_지도등록" transform="translate(-16.000000, -396.000000)">
            <g id="Group-8-Copy" transform="translate(16.000000, 396.000000)">
                <path d="M14.6311,9.6923 C14.6231,9.1713 14.6381,8.9113 14.5511,8.4703 C14.4961,8.1903 14.3561,7.5133 13.8751,6.7953 C13.1441,5.7013 12.1031,5.2443 11.7771,5.1153 C11.6291,5.0553 10.9211,4.7833 10.0001,4.78528903 C9.0791,4.7833 8.3711,5.0553 8.2231,5.1153 C7.8981,5.2443 6.8571,5.7013 6.1251,6.7953 C5.6451,7.5133 5.5041,8.1903 5.4481,8.4703 C5.3621,8.9113 5.3771,9.1713 5.3691,9.6923 C5.3471,11.2653 5.3831,12.8393 5.36006347,14.4133 C5.36006347,14.4643 5.3551,14.6293 5.4621,14.7643 C5.4791,14.7853 5.4961,14.8023 5.5141,14.8183 C5.5141,14.8183 5.5921,14.8873 5.6851,14.9083 C5.8131,14.9353 7.5601,14.9403 10.0001,14.9243 C12.4401,14.9403 14.1881,14.9353 14.3151,14.9083 C14.4081,14.8873 14.4861,14.8183 14.4861,14.8183 C14.5041,14.8023 14.5211,14.7853 14.5371,14.7643 C14.6451,14.6293 14.6411,14.4643 14.6401,14.4133 C14.6171,12.8393 14.6521,11.2653 14.6311,9.6923" id="Fill-1" fill="#FFFFFF"></path>
                <g id="Group-5" transform="translate(0.000000, 0.571400)">
                    <mask id="mask-2" fill="white">
                        <use xlink:href="#path-1"></use>
                    </mask>
                    <g id="Clip-4"></g>
                    <path d="M14.5373,14.1932 C14.5203,14.2142 14.5043,14.2312 14.4863,14.2472 C14.4863,14.2472 14.4083,14.3162 14.3143,14.3372 C14.1873,14.3642 12.4393,14.3692 10.0003,14.3532 C7.5593,14.3692 5.8123,14.3642 5.6843,14.3372 C5.5923,14.3162 5.5143,14.2472 5.5143,14.2472 C5.4963,14.2312 5.4783,14.2142 5.4623,14.1932 C5.3543,14.0582 5.3593,13.8932 5.3603,13.8412 C5.3833,12.2682 5.3473,10.6942 5.3693,9.1212 C5.3773,8.6002 5.3623,8.3392 5.4483,7.8992 C5.5043,7.6192 5.6443,6.9422 6.1253,6.2232 C6.8563,5.1302 7.8973,4.6722 8.2233,4.5442 C8.3713,4.4842 9.0793,4.2122 10.0003,4.21418903 C10.9213,4.2122 11.6293,4.4842 11.7773,4.5442 C12.1023,4.6722 13.1433,5.1302 13.8753,6.2232 C14.3553,6.9422 14.4963,7.6192 14.5513,7.8992 C14.6383,8.3392 14.6233,8.6002 14.6313,9.1212 C14.6523,10.6942 14.6173,12.2682 14.6403,13.8412 C14.6413,13.8932 14.6443,14.0582 14.5373,14.1932 M10.0103,17.6352 C8.8183,17.6352 7.8493,16.6672 7.8493,15.4752 C7.8493,15.2832 8.0053,15.1272 8.1973,15.1272 C8.3903,15.1272 8.5463,15.2832 8.5463,15.4752 C8.5463,16.2822 9.2023,16.9392 10.0103,16.9392 C10.8173,16.9392 11.4743,16.2822 11.4743,15.4752 C11.4743,15.2832 11.6303,15.1272 11.8223,15.1272 C12.0153,15.1272 12.1713,15.2832 12.1713,15.4752 C12.1713,16.6672 11.2013,17.6352 10.0103,17.6352 M10.0003,0.4282 C4.4723,0.4282 0.0003,4.9002 0.0003,10.4282 C0.0003,17.9282 10.0003,29.0002 10.0003,29.0002 C10.0003,29.0002 20.0003,17.9282 20.0003,10.4282 C20.0003,4.9002 15.5283,0.4282 10.0003,0.4282" id="Fill-3" fill="#EFEFEF" mask="url(#mask-2)"></path>
                </g>
                <path d="M11.8225,15.6982 C11.6305,15.6982 11.4735,15.8542 11.4735,16.0472 C11.4735,16.8532 10.8175,17.5102 10.0105,17.5102 C9.2025,17.5102 8.5465,16.8532 8.5465,16.0472 C8.5465,15.8542 8.3895,15.6982 8.1975,15.6982 C8.0055,15.6982 7.8485,15.8542 7.8485,16.0472 C7.8485,17.2382 8.8185,18.2072 10.0105,18.2072 C11.2015,18.2072 12.1715,17.2382 12.1715,16.0472 C12.1715,15.8542 12.0145,15.6982 11.8225,15.6982" id="Fill-6" fill="#FFFFFF"></path>
            </g>
        </g>
    </g>
</svg>