<?xml version="1.0" encoding="UTF-8"?>
<svg width="24px" height="24px" viewBox="0 0 24 24" version="1.1" xmlns="http://www.w3.org/2000/svg" xmlns:xlink="http://www.w3.org/1999/xlink">
    <title>xhdpi/icon/member</title>
    <defs>
        <polygon id="path-1" points="0 0 21.7436029 0 21.7436029 21.3529412 0 21.3529412"></polygon>
    </defs>
    <g id="icon/member" stroke="none" stroke-width="1" fill="none" fill-rule="evenodd">
        <path d="M11.8717206,21.0588235 C7.82825,21.0588235 4.61333824,20.6919412 2.29525,20.2034118 C2.30204412,18.7892647 2.62007353,17.4479118 3.18301471,16.2414706 C3.41983824,15.7332059 3.70066176,15.2492059 4.02030882,14.794 C5.21154412,13.0967647 6.94080882,11.8016765 8.96060294,11.1578529 C9.80630882,11.6884412 10.8021324,12 11.8717206,12 C12.9413088,12 13.9371324,11.6884412 14.7828382,11.1578529 C16.8026324,11.8016765 18.5318971,13.0967647 19.7234559,14.794 C20.0427794,15.2492059 20.3236029,15.7332059 20.56075,16.2414706 C21.1233676,17.4479118 21.4413971,18.7892647 21.4485147,20.2034118 C19.1301029,20.6919412 15.9151912,21.0588235 11.8717206,21.0588235 M7.66583824,6.5 C7.66583824,4.18094118 9.55266176,2.29411765 11.8717206,2.29411765 C14.1907794,2.29411765 16.0776029,4.18094118 16.0776029,6.5 C16.0776029,7.80447059 15.4806912,8.97241176 14.5453676,9.74435294 C13.8183971,10.3448235 12.8863088,10.7058824 11.8717206,10.7058824 C10.8571324,10.7058824 9.92504412,10.3448235 9.19807353,9.74435294 C8.26275,8.97241176 7.66583824,7.80447059 7.66583824,6.5 M22.7345441,19.8970294 C22.6966912,18.7284412 22.4750735,17.6057941 22.0933088,16.5582059 C21.9079265,16.0492941 21.6856618,15.5578529 21.4291029,15.0871176 C20.2275147,12.8851765 18.2811618,11.1449118 15.9307206,10.1982647 C16.8226912,9.22055882 17.3717206,7.92482353 17.3717206,6.5 C17.3717206,3.46723529 14.9044853,1 11.8717206,1 C8.83895588,1 6.37172059,3.46723529 6.37172059,6.5 C6.37172059,7.92482353 6.92075,9.22055882 7.81272059,10.1985882 C5.46260294,11.1449118 3.51625,12.8851765 2.31433824,15.0871176 C2.05777941,15.5578529 1.83551471,16.0492941 1.65013235,16.5582059 C1.26836765,17.6057941 1.04675,18.7284412 1.00889706,19.8970294 C1.00533824,20.0144706 0.999838235,20.1315882 0.999838235,20.25 C0.999838235,20.5861471 1.01763235,20.9180882 1.04772059,21.2467941 C1.17389706,21.2785 1.29845588,21.3102059 1.43013235,21.3409412 C1.73683824,21.4124412 2.05680882,21.4800588 2.38454412,21.5444412 C5.04492647,22.0675882 8.36692647,22.3529412 11.8717206,22.3529412 C15.3765147,22.3529412 18.6985147,22.0675882 21.3588971,21.5444412 C21.6869559,21.4800588 22.0066029,21.4124412 22.3133088,21.3409412 C22.4449853,21.3102059 22.5695441,21.2785 22.6957206,21.2467941 C22.7258088,20.9180882 22.7436029,20.5861471 22.7436029,20.25 C22.7436029,20.1315882 22.7384265,20.0144706 22.7345441,19.8970294" id="Fill-1" fill="#2D2D2D"></path>
        <g id="Group-3" transform="translate(1.000000, 1.000000)">
            <mask id="mask-2" fill="white">
                <use xlink:href="#path-1"></use>
            </mask>
            <g id="Clip-2"></g>
        </g>
    </g>
</svg>