<?xml version="1.0" encoding="UTF-8"?>
<svg width="28px" height="28px" viewBox="0 0 28 28" version="1.1" xmlns="http://www.w3.org/2000/svg" xmlns:xlink="http://www.w3.org/1999/xlink">
    <title>xhdpi/icon/more/my profile</title>
    <defs>
        <polygon id="path-1" points="0 0 26 0 26 26 0 26"></polygon>
    </defs>
    <g id="icon/more/my-profile" stroke="none" stroke-width="1" fill="none" fill-rule="evenodd">
        <g id="Group-3" transform="translate(1.000000, 1.000000)">
            <mask id="mask-2" fill="white">
                <use xlink:href="#path-1"></use>
            </mask>
            <g id="Clip-2"></g>
            <path d="M23.4627154,18.492303 C21.9861344,16.4926667 19.9519084,14.930697 17.5905569,14.0360606 C18.7572915,12.8601515 19.479481,11.2406667 19.479481,9.45454545 C19.479481,5.87048485 16.5726585,2.95454545 12.9998036,2.95454545 C9.42734152,2.95454545 6.52012627,5.87048485 6.52012627,9.45454545 C6.52012627,11.2406667 7.24270847,12.8601515 8.40944311,14.0360606 C6.04809159,14.930697 4.0138656,16.4926667 2.53728458,18.492303 C1.67097135,16.8499697 1.17812316,14.9819091 1.17812316,13 C1.17812316,6.48345455 6.48124821,1.18181818 12.9998036,1.18181818 C19.5187518,1.18181818 24.8218768,6.48345455 24.8218768,13 C24.8218768,14.9819091 24.3290287,16.8499697 23.4627154,18.492303 M7.69824943,9.45454545 C7.69824943,6.52166667 10.0764874,4.13636364 12.9998036,4.13636364 C15.9235126,4.13636364 18.3013579,6.52166667 18.3013579,9.45454545 C18.3013579,11.1413939 17.5124081,12.6438788 16.2875527,13.6188788 C15.8080565,14.001 15.2618001,14.3003939 14.6684187,14.4985455 C14.1433685,14.6742424 13.5833673,14.7727273 12.9998036,14.7727273 C12.4166327,14.7727273 11.8566315,14.6742424 11.3311885,14.4985455 C10.7381999,14.3003939 10.1919435,14.001 9.71244732,13.6188788 C8.48759195,12.6438788 7.69824943,11.1413939 7.69824943,9.45454545 M12.9998036,24.8181818 C8.92389022,24.8181818 5.32315314,22.7448788 3.19703355,19.5984848 C4.68618122,17.3947879 6.8979111,15.7173939 9.49056746,14.9102121 C10.502968,15.5680909 11.7062244,15.9545455 12.9998036,15.9545455 C14.2933829,15.9545455 15.497032,15.5680909 16.5094325,14.9102121 C19.1020889,15.7173939 21.3138188,17.3947879 22.8029665,19.5984848 C20.6768469,22.7448788 17.0761098,24.8181818 12.9998036,24.8181818 M12.9998036,0 C5.83170964,0 0,5.83148485 0,13 C0,15.4073636 0.660534385,17.6626667 1.8056701,19.5984848 C2.03147703,19.9794242 2.27495582,20.3493333 2.53728458,20.7042727 C4.90649025,23.913697 8.71339889,26 12.9998036,26 C17.2862084,26 21.0935097,23.913697 23.4627154,20.7042727 C23.7250442,20.3493333 23.968523,19.9794242 24.1943299,19.5984848 C25.3394656,17.6626667 26,15.4073636 26,13 C26,5.83148485 20.1678977,0 12.9998036,0" id="Fill-1" fill="#2D2D2D" mask="url(#mask-2)"></path>
        </g>
    </g>
</svg>