<?xml version="1.0" encoding="UTF-8"?>
<svg width="28px" height="28px" viewBox="0 0 28 28" version="1.1" xmlns="http://www.w3.org/2000/svg" xmlns:xlink="http://www.w3.org/1999/xlink">
    <title>xhdpi/icon/more/ management</title>
    <defs>
        <polygon id="path-1" points="0 0.367888889 13.9995722 0.367888889 13.9995722 14.7777778 0 14.7777778"></polygon>
    </defs>
    <g id="icon/more/-management" stroke="none" stroke-width="1" fill="none" fill-rule="evenodd">
        <path d="M14,2.7340747 L2.60557886,10.7657197 L2.60021976,25.4 L25.3997802,25.4 L25.3944211,10.7657197 L14,2.7340747 Z" id="Polygon" stroke="#2D2D2D" stroke-width="1.2"></path>
        <rect id="Rectangle" stroke="#2D2D2D" stroke-width="1.2" x="10.6" y="12.6" width="6.8" height="12.8" rx="1"></rect>
        <rect id="Rectangle" fill="#FFFFFF" x="13" y="14" width="15" height="14"></rect>
        <rect id="Rectangle" fill="#FFFFFF" x="16" y="14" width="2" height="3"></rect>
        <rect id="Rectangle" fill="#FFFFFF" x="16" y="12" width="2" height="2"></rect>
        <rect id="Rectangle" fill="#FFFFFF" x="14" y="14" width="13" height="2"></rect>
        <rect id="Rectangle" fill="#FFFFFF" x="16" y="13" width="3" height="2"></rect>
        <g id="Group-6" transform="translate(14.000000, 13.000000)">
            <g id="Group-3" transform="translate(0.000000, 0.409967)">
                <mask id="mask-2" fill="white">
                    <use xlink:href="#path-1"></use>
                </mask>
                <g id="Clip-2"></g>
                <path d="M9.96037778,12.4666889 C9.92382222,12.4908 9.88648889,12.5156889 9.84837778,12.5382444 C9.81571111,12.5569111 9.78226667,12.5732444 9.7496,12.5895778 L9.67182222,12.6284667 C9.36537778,12.7918 9.0566,12.9248 8.75015556,13.0243556 C8.71437778,13.0360222 8.68404444,13.0609111 8.66537778,13.0943556 L8.26404444,13.7881333 C8.14348889,13.8130222 8.02371111,13.8363556 7.9016,13.8534667 L6.11582222,13.8534667 C5.98826667,13.8363556 5.86071111,13.8114667 5.73315556,13.7842444 L5.33026667,13.0865778 C5.3116,13.0539111 5.28048889,13.0290222 5.24471111,13.0173556 C4.92426667,12.9139111 4.61704444,12.7848 4.33082222,12.6331333 C4.20015556,12.5646889 4.07182222,12.4939111 3.94737778,12.4161333 L3.94737778,12.4153556 C3.6736,12.2419111 3.40993333,12.0404667 3.16337778,11.8156889 C3.13537778,11.7900222 3.09882222,11.7752444 3.05993333,11.7752444 L2.26426667,11.7752444 C2.15926667,11.6546889 2.05348889,11.5255778 1.9446,11.3801333 L1.20415556,10.0960222 C1.12948889,9.92335556 1.06415556,9.74135556 1.00193333,9.55546667 L1.40482222,8.85857778 C1.42348889,8.82591111 1.42971111,8.78857778 1.42193333,8.75124444 C1.35271111,8.41135556 1.31226667,8.07691111 1.30448889,7.75568889 C1.30137778,7.63824444 1.30604444,7.52002222 1.31071111,7.4018 C1.32315556,7.0798 1.36437778,6.74846667 1.43515556,6.41868889 C1.44293333,6.38135556 1.43671111,6.34246667 1.41804444,6.30902222 L1.01826667,5.6168 C1.11315556,5.32746667 1.21271111,5.07157778 1.32393333,4.84135556 L1.74471111,4.11257778 C1.92982222,3.83335556 2.11882222,3.59224444 2.31948889,3.37057778 L3.12837778,3.37057778 C3.16571111,3.37057778 3.20226667,3.35657778 3.23026667,3.33246667 C3.47215556,3.11857778 3.7506,2.91713333 4.05626667,2.73202222 L4.10837778,2.69857778 C4.12237778,2.69002222 4.13715556,2.67991111 4.15115556,2.67057778 C4.17604444,2.65735556 4.20093333,2.64413333 4.22504444,2.63091111 L4.27948889,2.60213333 C4.58437778,2.43646667 4.89626667,2.30035556 5.2066,2.19691111 C5.24237778,2.18446667 5.27271111,2.15957778 5.29137778,2.12768889 L5.69426667,1.42924444 C6.5506,1.24646667 7.43104444,1.24957778 8.31148889,1.43857778 L8.7136,2.13702222 C8.73304444,2.16968889 8.76337778,2.19457778 8.79915556,2.20624444 C9.11726667,2.31124444 9.4276,2.4458 9.72082222,2.60446667 L9.7216,2.60446667 L9.77526667,2.63324444 C9.83437778,2.66513333 9.89348889,2.69702222 9.95104444,2.73202222 L9.95182222,2.73202222 C10.2310444,2.9008 10.5032667,3.10224444 10.7630444,3.33168889 C10.7918222,3.35657778 10.8276,3.37057778 10.8657111,3.37057778 L11.6738222,3.37057778 C11.8954889,3.61635556 12.1054889,3.88702222 12.2944889,4.18024444 L12.6133778,4.73324444 C12.7650444,5.02957778 12.8887111,5.32357778 12.9859333,5.61135556 L12.5869333,6.30124444 C12.5682667,6.33468889 12.5620444,6.37435556 12.5690444,6.41168889 C12.6413778,6.74457778 12.6833778,7.07435556 12.6950444,7.39324444 C12.6989333,7.49124444 12.6958222,7.58924444 12.6927111,7.68724444 L12.6911556,7.74713333 C12.6818222,8.07924444 12.6429333,8.41524444 12.5744889,8.7458 C12.5674889,8.78313333 12.5729333,8.82124444 12.5923778,8.85313333 L12.9952667,9.55235556 C12.9330444,9.74446667 12.8630444,9.93502222 12.7837111,10.1170222 L12.0362667,11.4128 C11.9499333,11.5271333 11.8496,11.6469111 11.7352667,11.7752444 L10.9380444,11.7752444 C10.8999333,11.7752444 10.8626,11.7892444 10.8346,11.8149111 C10.5981556,12.0295778 10.3313778,12.2310222 10.0397111,12.4153556 L9.96037778,12.4666889 Z M13.5366,8.64157778 C13.6478222,7.94624444 13.6439333,7.2338 13.5257111,6.52291111 L13.8974889,5.87891111 C14.0336,5.64168889 14.0336,5.34691111 13.8974889,5.10968889 L12.5822667,2.83157778 C12.4453778,2.59435556 12.1902667,2.44657778 11.9157111,2.44657778 L11.1426,2.44657778 C10.6004889,2.01102222 10.0054889,1.66802222 9.37004444,1.42535556 L8.98193333,0.752577778 C8.84504444,0.515355556 8.58993333,0.367577778 8.31537778,0.367577778 L5.68493333,0.367577778 C5.41037778,0.367577778 5.15526667,0.515355556 5.01837778,0.752577778 L4.62637778,1.43157778 C4.27948889,1.56457778 3.97071111,1.70846667 3.68915556,1.87102222 C3.41926667,2.02735556 3.14704444,2.21791111 2.8616,2.44657778 L2.0846,2.44657778 C1.81004444,2.44657778 1.55493333,2.59435556 1.41804444,2.8308 L0.102822222,5.10968889 C-0.0340666667,5.34691111 -0.0348444444,5.64168889 0.102822222,5.87891111 L0.473822222,6.52057778 C0.356377778,7.21902222 0.353266667,7.93068889 0.466044444,8.63691111 L0.102822222,9.26691111 C-0.0340666667,9.50335556 -0.0348444444,9.79891111 0.102822222,10.0369111 L1.41804444,12.3142444 C1.55493333,12.5514667 1.81004444,12.6992444 2.0846,12.6992444 L2.78226667,12.6992444 C3.35237778,13.1729111 3.9886,13.5423556 4.67537778,13.7990222 L5.01837778,14.3932444 C5.15526667,14.6304667 5.41037778,14.7782444 5.68493333,14.7782444 L8.31537778,14.7782444 C8.58993333,14.7782444 8.84504444,14.6296889 8.98115556,14.3932444 L9.32415556,13.8005778 C9.67415556,13.6683556 10.0062667,13.5143556 10.3103778,13.3378 C10.6214889,13.1596889 10.9186,12.9473556 11.2196,12.6992444 L11.9157111,12.6992444 C12.1902667,12.6992444 12.4453778,12.5514667 12.5822667,12.3142444 L13.8974889,10.0361333 C14.0336,9.79891111 14.0336,9.50335556 13.8974889,9.26691111 L13.5366,8.64157778 Z" id="Fill-1" stroke="#2D2D2D" stroke-width="0.3" fill="#2D2D2D" mask="url(#mask-2)"></path>
            </g>
            <path d="M7.00038889,11.2162556 C5.21694444,11.2162556 3.76716667,9.76647778 3.76716667,7.98303333 C3.76716667,6.20036667 5.21694444,4.74981111 7.00038889,4.74981111 C8.78305556,4.74981111 10.2336111,6.20036667 10.2336111,7.98303333 C10.2336111,9.76647778 8.78305556,11.2162556 7.00038889,11.2162556 M7.00038889,3.82581111 C4.70827778,3.82581111 2.84238889,5.69092222 2.84238889,7.98303333 C2.84238889,10.2751444 4.70827778,12.1394778 7.00038889,12.1394778 C9.2925,12.1394778 11.1576111,10.2751444 11.1576111,7.98303333 C11.1576111,5.69092222 9.2925,3.82581111 7.00038889,3.82581111" id="Fill-4" stroke="#2D2D2D" stroke-width="0.3" fill="#2D2D2D"></path>
        </g>
    </g>
</svg>