<?xml version="1.0" encoding="UTF-8"?>
<svg width="28px" height="28px" viewBox="0 0 28 28" version="1.1" xmlns="http://www.w3.org/2000/svg" xmlns:xlink="http://www.w3.org/1999/xlink">
    <title>xhdpi/icon/more/schedule</title>
    <defs>
        <polygon id="path-1" points="0 0.2032875 25.9999187 0.2032875 25.9999187 25.1875 0 25.1875"></polygon>
    </defs>
    <g id="icon/more/schedule" stroke="none" stroke-width="1" fill="none" fill-rule="evenodd">
        <g id="Group-12" transform="translate(1.000000, 1.000000)">
            <g id="Group-3" transform="translate(0.000000, 0.202963)">
                <mask id="mask-2" fill="white">
                    <use xlink:href="#path-1"></use>
                </mask>
                <g id="Clip-2"></g>
                <path d="M24.7811687,23.9022875 C24.7811687,23.9132562 24.7389187,23.9689125 24.6552312,23.9689125 L1.3450125,23.9689125 C1.26091875,23.9689125 1.21866875,23.9132562 1.21866875,23.9022875 L1.21866875,2.91013125 C1.21866875,2.8991625 1.26091875,2.8439125 1.3450125,2.8439125 L5.2498875,2.8439125 L5.2498875,4.0626625 C5.2498875,4.3990375 5.52248125,4.6720375 5.8592625,4.6720375 C6.1956375,4.6720375 6.4686375,4.3990375 6.4686375,4.0626625 L6.4686375,2.8439125 L19.0770125,2.8439125 L19.0770125,4.0626625 C19.0770125,4.3990375 19.3496063,4.6720375 19.6863875,4.6720375 C20.0231687,4.6720375 20.2957625,4.3990375 20.2957625,4.0626625 L20.2957625,2.8439125 L24.6552312,2.8439125 C24.7389187,2.8439125 24.7811687,2.8991625 24.7811687,2.91013125 L24.7811687,23.9022875 Z M24.6552312,1.6251625 L20.2957625,1.6251625 L20.2957625,0.8126625 C20.2957625,0.4762875 20.0231687,0.2032875 19.6863875,0.2032875 C19.3496063,0.2032875 19.0770125,0.4762875 19.0770125,0.8126625 L19.0770125,1.6251625 L6.4686375,1.6251625 L6.4686375,0.8126625 C6.4686375,0.4762875 6.1956375,0.2032875 5.8592625,0.2032875 C5.52248125,0.2032875 5.2498875,0.4762875 5.2498875,0.8126625 L5.2498875,1.6251625 L1.3450125,1.6251625 C0.60523125,1.6251625 -8.125e-05,2.20325625 -8.125e-05,2.91013125 L-8.125e-05,23.9022875 C-8.125e-05,24.6091625 0.60523125,25.1876625 1.3450125,25.1876625 L24.6552312,25.1876625 C25.3950125,25.1876625 25.9999187,24.6091625 25.9999187,23.9022875 L25.9999187,2.91013125 C25.9999187,2.20325625 25.3950125,1.6251625 24.6552312,1.6251625 L24.6552312,1.6251625 Z" id="Fill-1" fill="#2D2D2D" mask="url(#mask-2)"></path>
            </g>
            <path d="M21.7342937,7.71875 L9.54679375,7.71875 C9.2100125,7.71875 8.93741875,7.99175 8.93741875,8.328125 C8.93741875,8.6645 9.2100125,8.9375 9.54679375,8.9375 L21.7342937,8.9375 C22.071075,8.9375 22.3436687,8.6645 22.3436687,8.328125 C22.3436687,7.99175 22.071075,7.71875 21.7342937,7.71875" id="Fill-4" fill="#2D2D2D"></path>
            <path d="M7.31241875,8.328125 C7.31241875,7.99175 7.039825,7.71875 6.70304375,7.71875 L4.26554375,7.71875 C3.9287625,7.71875 3.65616875,7.99175 3.65616875,8.328125 C3.65616875,8.6645 3.9287625,8.9375 4.26554375,8.9375 L6.70304375,8.9375 C7.039825,8.9375 7.31241875,8.6645 7.31241875,8.328125" id="Fill-6" fill="#2D2D2D"></path>
            <path d="M7.8017875,19.9963156 L9.75381875,18.0385969 C11.2890375,16.5029719 11.7533813,15.8188469 11.7533813,14.8308469 C11.7533813,13.4800656 10.6166937,12.4030969 8.93238125,12.4030969 C7.20663125,12.4030969 5.945225,13.5336906 5.945225,15.0928781 L7.20663125,15.0928781 C7.20663125,14.1763781 7.950475,13.5040344 8.93238125,13.5040344 C9.8427875,13.5040344 10.4379437,14.1227531 10.4379437,14.9141281 C10.4379437,15.5868781 10.1763188,16.0268469 9.045725,17.1814094 L6.01631875,20.2343781 L6.01631875,21.1508781 L11.8898813,21.1508781 L11.8898813,20.0259719 L7.8017875,20.0259719 L7.8017875,19.9963156 Z" id="Fill-8" fill="#2D2D2D"></path>
            <path d="M16.1747625,20.2403094 C15.0799188,20.2403094 14.300325,19.6094031 14.300325,18.7347469 C14.300325,17.8539969 15.0799188,17.2230906 16.1747625,17.2230906 C17.2696062,17.2230906 18.0435125,17.8479031 18.0435125,18.7347469 C18.0435125,19.6094031 17.2696062,20.2403094 16.1747625,20.2403094 M14.56195,14.8071219 C14.56195,14.0157469 15.2225125,13.4620281 16.1747625,13.4620281 C17.1209188,13.4620281 17.787575,14.0157469 17.787575,14.8071219 C17.787575,15.5928094 17.114825,16.1522156 16.1747625,16.1522156 C15.2225125,16.1522156 14.56195,15.5928094 14.56195,14.8071219 M17.5198563,16.6279344 L17.5198563,16.5982781 C18.489575,16.3126844 19.1026063,15.5867156 19.1026063,14.6880906 C19.1026063,13.3608719 17.8826375,12.4029344 16.1747625,12.4029344 C14.4729813,12.4029344 13.2351375,13.3669656 13.2351375,14.6819969 C13.2351375,15.5928094 13.85995,16.3244656 14.8296687,16.5982781 L14.8296687,16.6279344 C13.699075,16.8720906 12.925575,17.7349656 12.925575,18.8298094 C12.925575,20.2821531 14.2706688,21.3115906 16.1747625,21.3115906 C18.0731688,21.3115906 19.42395,20.2878406 19.42395,18.8298094 C19.42395,17.7410594 18.65045,16.8781844 17.5198563,16.6279344" id="Fill-10" fill="#2D2D2D"></path>
        </g>
    </g>
</svg>