<?xml version="1.0" encoding="UTF-8"?>
<svg width="28px" height="28px" viewBox="0 0 28 28" version="1.1" xmlns="http://www.w3.org/2000/svg" xmlns:xlink="http://www.w3.org/1999/xlink">
    <title>xhdpi/icon/more/operation</title>
    <defs>
        <polygon id="path-1" points="0 0 12 0 12 12 0 12"></polygon>
    </defs>
    <g id="icon/more/operation" stroke="none" stroke-width="1" fill="none" fill-rule="evenodd">
        <path d="M14,2.7340747 L2.60557886,10.7657197 L2.60021976,25.4 L25.3997802,25.4 L25.3944211,10.7657197 L14,2.7340747 Z" id="Polygon" stroke="#2D2D2D" stroke-width="1.2"></path>
        <rect id="Rectangle" stroke="#2D2D2D" stroke-width="1.2" x="10.6" y="12.6" width="6.8" height="12.8" rx="1"></rect>
        <circle id="Oval" fill="#FFFFFF" cx="21" cy="19" r="6"></circle>
        <rect id="Rectangle" fill="#FFFFFF" x="13" y="19" width="15" height="9"></rect>
        <g id="Group-3" transform="translate(15.000000, 15.000000)">
            <mask id="mask-2" fill="white">
                <use xlink:href="#path-1"></use>
            </mask>
            <g id="Clip-2"></g>
            <path d="M6.00013427,10.90683 C3.83977443,10.90683 2.22991026,10.719898 1.08299953,10.4824068 C1.10582496,9.83306384 1.2486853,9.21514951 1.49439434,8.6513471 C1.68424822,8.21544558 1.9326426,7.81206586 2.23125294,7.45186636 C2.80564818,6.75961648 3.56264685,6.22997563 4.42517958,5.93345328 C4.88840155,6.20975199 5.42547049,6.37044797 6.00013427,6.37044797 C6.57479804,6.37044797 7.11159845,6.20975199 7.57482042,5.93345328 C8.43762168,6.22997563 9.19435182,6.75961648 9.76874706,7.45186636 C10.0673574,7.81206586 10.3157518,8.21544558 10.5056057,8.6513471 C10.7513147,9.21514951 10.894175,9.83306384 10.9170005,10.4826801 C9.77008974,10.719898 8.1604941,10.90683 6.00013427,10.90683 M3.94423434,3.18522399 C3.94423434,2.03165638 4.86638172,1.09316997 6.00013427,1.09316997 C7.13361828,1.09316997 8.05576566,2.03165638 8.05576566,3.18522399 C8.05576566,3.80095197 7.79152774,4.35354939 7.37422517,4.73697875 C7.00955535,5.07148876 6.52861011,5.27727801 6.00013427,5.27727801 C5.47138989,5.27727801 4.99044465,5.07148876 4.62604337,4.73697875 C4.20847226,4.35354939 3.94423434,3.80095197 3.94423434,3.18522399 M11.9817397,10.2121205 C11.9497841,9.77102644 11.8719091,9.34277711 11.7518741,8.93229179 C11.6240517,8.49557038 11.4492358,8.07879933 11.232797,7.68853766 C10.6095285,6.56311918 9.64387853,5.65906762 8.48031866,5.12040812 C8.88607425,4.58338837 9.12990355,3.91354848 9.12990355,3.18522399 C9.12990355,1.42877314 7.72600533,0 6.00013427,0 C4.27399467,0 2.87009645,1.42877314 2.87009645,3.18522399 C2.87009645,3.91354848 3.11419428,4.58338837 3.51994987,5.12068141 C2.35612147,5.65906762 1.39074004,6.56311918 0.76720299,7.68881095 C0.551032739,8.07879933 0.375948262,8.49557038 0.248125853,8.93256508 C0.128090944,9.34277711 0.0502159465,9.77102644 0.0182603442,10.2121205 C0.00751896525,10.3607916 0,10.5105559 0,10.66196 C0,10.8961716 0.0145008615,11.1271038 0.0400116365,11.3544831 C0.397699555,11.4493156 0.776333162,11.5307568 1.16436548,11.5998998 C3.35936626,11.9909813 5.81511402,12 6.00013427,12 C6.18515452,12 8.64063374,11.9909813 10.8356345,11.5998998 C11.2236668,11.5307568 11.6023004,11.4493156 11.9599884,11.3544831 C11.9854991,11.1271038 12,10.8961716 12,10.66196 C12,10.5105559 11.992481,10.3607916 11.9817397,10.2121205" id="Fill-1" fill="#2D2D2D" mask="url(#mask-2)"></path>
        </g>
        <rect id="Rectangle" fill="#FFFFFF" x="16" y="14" width="2" height="3"></rect>
        <rect id="Rectangle" fill="#FFFFFF" x="24" y="14" width="3" height="2"></rect>
    </g>
</svg>