<?xml version="1.0" encoding="UTF-8"?>
<svg width="24px" height="24px" viewBox="0 0 24 24" version="1.1" xmlns="http://www.w3.org/2000/svg" xmlns:xlink="http://www.w3.org/1999/xlink">
    <title>menu/icon/my</title>
    <defs>
        <polygon id="path-1" points="0 0 21.7436029 0 21.7436029 21.3529412 0 21.3529412"></polygon>
    </defs>
    <g id="menu/icon/my" stroke="none" stroke-width="1" fill="none" fill-rule="evenodd">
        <g id="Group-3" transform="translate(1.000000, 1.000000)">
            <mask id="mask-2" fill="white">
                <use xlink:href="#path-1"></use>
            </mask>
            <g id="Clip-2"></g>
            <path d="M10.8717206,20.0588235 C6.82825,20.0588235 3.61333824,19.6919412 1.29525,19.2034118 C1.30204412,17.7892647 1.62007353,16.4479118 2.18301471,15.2414706 C2.41983824,14.7332059 2.70066176,14.2492059 3.02030882,13.794 C4.21154412,12.0967647 5.94080882,10.8016765 7.96060294,10.1578529 C8.80630882,10.6884412 9.80213235,11 10.8717206,11 C11.9413088,11 12.9371324,10.6884412 13.7828382,10.1578529 C15.8026324,10.8016765 17.5318971,12.0967647 18.7234559,13.794 C19.0427794,14.2492059 19.3236029,14.7332059 19.56075,15.2414706 C20.1233676,16.4479118 20.4413971,17.7892647 20.4485147,19.2034118 C18.1301029,19.6919412 14.9151912,20.0588235 10.8717206,20.0588235 M6.66583824,5.5 C6.66583824,3.18094118 8.55266176,1.29411765 10.8717206,1.29411765 C13.1907794,1.29411765 15.0776029,3.18094118 15.0776029,5.5 C15.0776029,6.80447059 14.4806912,7.97241176 13.5453676,8.74435294 C12.8183971,9.34482353 11.8863088,9.70588235 10.8717206,9.70588235 C9.85713235,9.70588235 8.92504412,9.34482353 8.19807353,8.74435294 C7.26275,7.97241176 6.66583824,6.80447059 6.66583824,5.5 M21.7345441,18.8970294 C21.6966912,17.7284412 21.4750735,16.6057941 21.0933088,15.5582059 C20.9079265,15.0492941 20.6856618,14.5578529 20.4291029,14.0871176 C19.2275147,11.8851765 17.2811618,10.1449118 14.9307206,9.19826471 C15.8226912,8.22055882 16.3717206,6.92482353 16.3717206,5.5 C16.3717206,2.46723529 13.9044853,0 10.8717206,0 C7.83895588,0 5.37172059,2.46723529 5.37172059,5.5 C5.37172059,6.92482353 5.92075,8.22055882 6.81272059,9.19858824 C4.46260294,10.1449118 2.51625,11.8851765 1.31433824,14.0871176 C1.05777941,14.5578529 0.835514706,15.0492941 0.650132353,15.5582059 C0.268367647,16.6057941 0.04675,17.7284412 0.00889705882,18.8970294 C0.00533823529,19.0144706 -0.000161764706,19.1315882 -0.000161764706,19.25 C-0.000161764706,19.5861471 0.0176323529,19.9180882 0.0477205882,20.2467941 C0.173897059,20.2785 0.298455882,20.3102059 0.430132353,20.3409412 C0.736838235,20.4124412 1.05680882,20.4800588 1.38454412,20.5444412 C4.04492647,21.0675882 7.36692647,21.3529412 10.8717206,21.3529412 C14.3765147,21.3529412 17.6985147,21.0675882 20.3588971,20.5444412 C20.6869559,20.4800588 21.0066029,20.4124412 21.3133088,20.3409412 C21.4449853,20.3102059 21.5695441,20.2785 21.6957206,20.2467941 C21.7258088,19.9180882 21.7436029,19.5861471 21.7436029,19.25 C21.7436029,19.1315882 21.7384265,19.0144706 21.7345441,18.8970294" id="Fill-1" fill="#8F8F8F" mask="url(#mask-2)"></path>
        </g>
    </g>
</svg>