<?xml version="1.0" encoding="UTF-8"?>
<svg width="24px" height="24px" viewBox="0 0 24 24" version="1.1" xmlns="http://www.w3.org/2000/svg" xmlns:xlink="http://www.w3.org/1999/xlink">
    <title>menu/icon/my sel</title>
    <defs>
        <polygon id="path-1" points="0 0 21.7436676 0 21.7436676 21.9999 0 21.9999"></polygon>
    </defs>
    <g id="menu/icon/my-sel" stroke="none" stroke-width="1" fill="none" fill-rule="evenodd">
        <g id="Group-3" transform="translate(1.000000, 1.000000)">
            <mask id="mask-2" fill="white">
                <use xlink:href="#path-1"></use>
            </mask>
            <g id="Clip-2"></g>
            <path d="M21.7346088,19.4695667 C21.6967559,18.2659 21.4751382,17.1089 21.0933735,16.0299 C20.9076676,15.5052333 20.6857265,14.9989 20.4291676,14.5142333 C19.2272559,12.2455667 17.2809029,10.4525667 14.9307853,9.4769 C15.8227559,8.46956667 16.3717853,7.13456667 16.3717853,5.66656667 C16.3717853,2.5419 13.90455,-0.0001 10.8717853,-0.0001 C7.83902059,-0.0001 5.37178529,2.5419 5.37178529,5.66656667 C5.37178529,7.13456667 5.92081471,8.46956667 6.81278529,9.47723333 C4.46266765,10.4525667 2.51631471,12.2455667 1.31440294,14.5142333 C1.05784412,14.9989 0.835579412,15.5052333 0.650197059,16.0299 C0.268432353,17.1089 0.0468147059,18.2659 0.00896176471,19.4695667 C0.00507941176,19.5905667 -9.70588235e-05,19.7115667 -9.70588235e-05,19.8332333 C-9.70588235e-05,20.1795667 0.0176970588,20.5219 0.0477852941,20.8602333 C0.173961765,20.8929 0.298520588,20.9259 0.429873529,20.9572333 C0.736902941,21.0312333 1.05655,21.1005667 1.38460882,21.1669 C4.04499118,21.7059 7.36699118,21.9999 10.8717853,21.9999 C14.3765794,21.9999 17.6985794,21.7059 20.3589618,21.1669 C20.6870206,21.1005667 21.0066676,21.0312333 21.3133735,20.9572333 C21.4447265,20.9259 21.5696088,20.8929 21.6957853,20.8602333 C21.7258735,20.5219 21.7436676,20.1795667 21.7436676,19.8332333 C21.7436676,19.7115667 21.7384912,19.5905667 21.7346088,19.4695667" id="Fill-1" fill="#7540EE" mask="url(#mask-2)"></path>
        </g>
    </g>
</svg>