<?xml version="1.0" encoding="UTF-8"?>
<svg width="24px" height="24px" viewBox="0 0 24 24" version="1.1" xmlns="http://www.w3.org/2000/svg" xmlns:xlink="http://www.w3.org/1999/xlink">
    <title>menu/icon/my</title>
    <g id="menu/icon/my" stroke="none" stroke-width="1" fill="none" fill-rule="evenodd">
        <path d="M21.9908021,18.8146396 C21.9567697,17.7744579 21.7525754,16.776097 21.4012141,15.8435817 C21.2310522,15.3906711 21.0259382,14.953777 20.7904709,14.534679 C19.6848786,12.575329 17.8949595,11.0270688 15.7325239,10.1844237 C16.5538999,9.31508453 17.0588668,8.16189763 17.0588668,6.89392591 C17.0588668,4.19514822 14.7888153,2 12,2 C9.20934511,2 6.94113319,4.19514822 6.94113319,6.89392591 C6.94113319,8.16189763 7.44610007,9.31508453 8.26655629,10.1853135 C6.10504047,11.0270688 4.31420162,12.575329 3.20860927,14.534679 C2.97314202,14.953777 2.76894776,15.3906711 2.59786608,15.8435817 C2.24650478,16.776097 2.04323032,17.7744579 2.00827815,18.8146396 C2.00459897,18.9187468 2,19.0228539 2,19.1287407 C2,19.4277151 2.01655629,19.7231302 2.04323032,20.015876 C2.16004415,20.0443497 2.2740986,20.0719337 2.39551141,20.0995176 C2.67788815,20.1635836 2.97222222,20.2232005 3.27299485,20.280148 C5.72056659,20.7464057 8.77612215,21 12,21 C15.2238779,21 18.2785136,20.7464057 20.7260854,20.280148 C21.0277778,20.2232005 21.3211921,20.1635836 21.6035688,20.0995176 C21.7249816,20.0719337 21.8390361,20.0443497 21.9558499,20.015876 C21.9825239,19.7231302 22,19.4277151 22,19.1287407 C22,19.0228539 21.9944812,18.9187468 21.9908021,18.8146396" id="Fill-1" stroke="#8F8F8F" stroke-width="1.2"></path>
        <circle id="Oval" stroke="#979797" stroke-width="1.2" cx="12" cy="7" r="5"></circle>
    </g>
</svg>