<?xml version="1.0" encoding="UTF-8"?>
<svg width="24px" height="24px" viewBox="0 0 24 24" version="1.1" xmlns="http://www.w3.org/2000/svg" xmlns:xlink="http://www.w3.org/1999/xlink">
    <title>menu/icon/my copy 3</title>
    <g id="menu/icon/my-copy-3" stroke="none" stroke-width="1" fill="none" fill-rule="evenodd">
        <path d="M17,1.6 C18.4911688,1.6 19.8411688,2.20441559 20.8183766,3.18162338 C21.7955844,4.15883118 22.4,5.50883118 22.4,7 L22.4,7 L22.4,20 C22.4,20.6627417 22.1313708,21.2627417 21.6970563,21.6970563 C21.2627417,22.1313708 20.6627417,22.4 20,22.4 L20,22.4 L7,22.4 C5.50883118,22.4 4.15883118,21.7955844 3.18162338,20.8183766 C2.20441559,19.8411688 1.6,18.4911688 1.6,17 L1.6,17 L1.6,4 C1.6,3.3372583 1.86862915,2.7372583 2.30294373,2.30294373 C2.7372583,1.86862915 3.3372583,1.6 4,1.6 L4,1.6 L17,1.6 Z" id="Rectangle" stroke="#979797" stroke-width="1.2"></path>
    </g>
</svg>