<?xml version="1.0" encoding="UTF-8"?>
<svg width="24px" height="24px" viewBox="0 0 24 24" version="1.1" xmlns="http://www.w3.org/2000/svg" xmlns:xlink="http://www.w3.org/1999/xlink">
    <title>xhdpi/icon/notice</title>
    <defs>
        <polygon id="path-1" points="0 6.66666667e-05 20.9999667 6.66666667e-05 20.9999667 17.0000333 0 17.0000333"></polygon>
    </defs>
    <g id="icon/notice" stroke="none" stroke-width="1" fill="none" fill-rule="evenodd">
        <g id="Group-3" transform="translate(2.000000, 4.000000)">
            <mask id="mask-2" fill="white">
                <use xlink:href="#path-1"></use>
            </mask>
            <g id="Clip-2"></g>
            <path d="M19.9999667,14.6667333 L10.3333,12.7754 L9.3333,12.5797333 L7.1973,12.1617333 L4.66663333,11.6667333 L4.66663333,6.00006667 L4.66663333,4.00006667 L7.1973,3.50506667 L8.79063333,3.19306667 L19.9999667,1.00006667 L19.9999667,14.6667333 Z M9.3333,13.6667333 C9.3333,14.9500667 8.28363333,16.0000667 6.99996667,16.0000667 C5.71663333,16.0000667 4.66663333,14.9500667 4.66663333,13.6667333 L4.66663333,12.6857333 L9.3333,13.5987333 L9.3333,13.6667333 Z M0.999966667,11.6667333 L0.999966667,4.00006667 L3.66663333,4.00006667 L3.66663333,6.00006667 L3.66663333,11.6667333 L0.999966667,11.6667333 Z M20.6356333,0.228066667 C20.4549667,0.0794 20.2296333,6.66666667e-05 19.9999667,6.66666667e-05 C19.9363,6.66666667e-05 19.8716333,0.00606666667 19.8079667,0.0187333333 L4.56963333,3.00006667 L0.999966667,3.00006667 C0.447966667,3.00006667 -3.33333333e-05,3.44773333 -3.33333333e-05,4.00006667 L-3.33333333e-05,11.6667333 C-3.33333333e-05,12.2190667 0.447966667,12.6667333 0.999966667,12.6667333 L3.66663333,12.6667333 L3.66663333,13.6667333 C3.66663333,15.5047333 5.16196667,17.0000667 6.99996667,17.0000667 C8.7953,17.0000667 10.2596333,15.5724 10.3266333,13.7930667 L19.8079667,15.6480667 C19.8716333,15.6604 19.9363,15.6667333 19.9999667,15.6667333 C20.2296333,15.6667333 20.4549667,15.5874 20.6356333,15.4387333 C20.8666333,15.2487333 20.9999667,14.9654 20.9999667,14.6667333 L20.9999667,1.00006667 C20.9999667,0.7014 20.8666333,0.418066667 20.6356333,0.228066667 L20.6356333,0.228066667 Z" id="Fill-1" fill="#2D2D2D" mask="url(#mask-2)"></path>
        </g>
    </g>
</svg>