<?xml version="1.0" encoding="UTF-8"?>
<svg width="24px" height="24px" viewBox="0 0 24 24" version="1.1" xmlns="http://www.w3.org/2000/svg" xmlns:xlink="http://www.w3.org/1999/xlink">
    <title>xhdpi/icon/Operation</title>
    <defs>
        <polygon id="path-1" points="0 0 10 0 10 10 0 10"></polygon>
    </defs>
    <g id="icon/Operation" stroke="none" stroke-width="1" fill="none" fill-rule="evenodd">
        <path d="M11.5,2.79524759 L1.65485777,9.73484426 L1.65023807,22.35 L21.3497619,22.35 L21.3451422,9.73484426 L11.5,2.79524759 Z" id="Polygon" stroke="#2D2D2D" stroke-width="1.3"></path>
        <rect id="Rectangle" stroke="#2D2D2D" stroke-width="1.3" x="8.65" y="11.65" width="5.7" height="10.7" rx="1"></rect>
        <circle id="Oval" fill="#FFFFFF" cx="18" cy="17" r="5"></circle>
        <rect id="Rectangle" fill="#FFFFFF" x="11" y="17" width="13" height="8"></rect>
        <g id="Group-3" transform="translate(13.000000, 14.000000)">
            <mask id="mask-2" fill="white">
                <use xlink:href="#path-1"></use>
            </mask>
            <g id="Clip-2"></g>
            <path d="M5.00011189,9.08902503 C3.19981203,9.08902503 1.85825855,8.93324831 0.902499608,8.735339 C0.9215208,8.19421986 1.04057108,7.67929126 1.24532862,7.20945592 C1.40354018,6.84620465 1.6105355,6.51005489 1.85937745,6.20988863 C2.33804015,5.63301373 2.96887238,5.19164636 3.68764965,4.9445444 C4.07366796,5.17479332 4.52122541,5.30870664 5.00011189,5.30870664 C5.47899837,5.30870664 5.92633204,5.17479332 6.31235035,4.9445444 C7.0313514,5.19164636 7.66195985,5.63301373 8.14062255,6.20988863 C8.3894645,6.51005489 8.59645982,6.84620465 8.75467138,7.20945592 C8.95942892,7.67929126 9.0784792,8.19421986 9.09750039,8.73556674 C8.14174145,8.93324831 6.80041175,9.08902503 5.00011189,9.08902503 M3.28686195,2.65435332 C3.28686195,1.69304698 4.0553181,0.910974971 5.00011189,0.910974971 C5.9446819,0.910974971 6.71313805,1.69304698 6.71313805,2.65435332 C6.71313805,3.16745997 6.49293978,3.62795782 6.14518764,3.94748229 C5.84129613,4.22624063 5.44050843,4.39773167 5.00011189,4.39773167 C4.55949157,4.39773167 4.15870387,4.22624063 3.85503614,3.94748229 C3.50706022,3.62795782 3.28686195,3.16745997 3.28686195,2.65435332 M9.98478305,8.51010043 C9.95815338,8.14252203 9.89325755,7.78564759 9.79322846,7.44357649 C9.68670978,7.07964199 9.54102983,6.73233278 9.36066418,6.40711471 C8.84127375,5.46926598 8.03656544,4.71588968 7.06693222,4.26700676 C7.40506187,3.81949031 7.60825296,3.2612904 7.60825296,2.65435332 C7.60825296,1.19064429 6.43833777,0 5.00011189,0 C3.56166223,0 2.39174704,1.19064429 2.39174704,2.65435332 C2.39174704,3.2612904 2.5951619,3.81949031 2.93329156,4.26723451 C1.96343456,4.71588968 1.15895003,5.46926598 0.639335825,6.40734246 C0.459193949,6.73233278 0.313290219,7.07964199 0.206771544,7.44380423 C0.106742453,7.78564759 0.0418466221,8.14252203 0.0152169535,8.51010043 C0.00626580437,8.63399303 0,8.7587966 0,8.88496664 C0,9.08014302 0.0120840513,9.27258649 0.0333430304,9.46206928 C0.331416296,9.54109636 0.646944301,9.60896399 0.970304563,9.66658316 C2.79947188,9.99248446 4.84592835,10 5.00011189,10 C5.15429543,10 7.20052812,9.99248446 9.02969544,9.66658316 C9.3530557,9.60896399 9.6685837,9.54109636 9.96665697,9.46206928 C9.98791595,9.27258649 10,9.08014302 10,8.88496664 C10,8.7587966 9.9937342,8.63399303 9.98478305,8.51010043" id="Fill-1" fill="#2D2D2D" mask="url(#mask-2)"></path>
        </g>
        <rect id="Rectangle" fill="#FFFFFF" x="13" y="13" width="2" height="2"></rect>
        <rect id="Rectangle" fill="#FFFFFF" x="20" y="13" width="3" height="1"></rect>
    </g>
</svg>