<?xml version="1.0" encoding="UTF-8"?>
<svg width="28px" height="28px" viewBox="0 0 28 28" version="1.1" xmlns="http://www.w3.org/2000/svg" xmlns:xlink="http://www.w3.org/1999/xlink">
    <title>xhdpi/icon/pin</title>
    <g id="icon/pin" stroke="none" stroke-width="1" fill="none" fill-rule="evenodd">
        <g id="Group-6" transform="translate(6.000000, 2.000000)">
            <path d="M8,7.5 C7.173,7.5 6.5,8.173 6.5,9 C6.5,9.827 7.173,10.5 8,10.5 C8.827,10.5 9.5,9.827 9.5,9 C9.5,8.173 8.827,7.5 8,7.5" id="Fill-1" fill="#000000"></path>
            <g id="Group-5" transform="translate(0.000000, 0.491900)" fill="#2D2D2D" stroke="#2D2D2D" stroke-width="0.5">
                <path d="M8,21.5081 C8,21.5081 1,13.7581 1,8.5081 C1,4.6381 4.13,1.5081 8,1.5081 C11.87,1.5081 15,4.6381 15,8.5081 C15,13.7581 8,21.5081 8,21.5081 M8,0.5081 C3.589,0.5081 0,4.0971 0,8.5081 C0,14.0781 6.961,21.8501 7.258,22.1781 L8,23.0001 L8.742,22.1781 C9.038,21.8501 16,14.0781 16,8.5081 C16,4.0971 12.411,0.5081 8,0.5081" id="Fill-3"></path>
            </g>
        </g>
    </g>
</svg>