<?xml version="1.0" encoding="UTF-8"?>
<svg width="24px" height="24px" viewBox="0 0 24 24" version="1.1" xmlns="http://www.w3.org/2000/svg" xmlns:xlink="http://www.w3.org/1999/xlink">
    <title>xhdpi/icon/report</title>
    <g id="icon/report" stroke="none" stroke-width="1" fill="none" fill-rule="evenodd">
        <g id="Group-13" transform="translate(1.000000, 2.000000)" fill="#2D2D2D">
            <path d="M19,18.6059667 L18.3333333,18.6059667 L17.3333333,18.6059667 L4,18.6059667 L3,18.6059667 L2.33333333,18.6059667 L2.33333333,17.8029667 C2.33333333,17.3456333 2.60833333,16.9516333 3,16.7719667 C3.144,16.7056333 3.302,16.6666333 3.46966667,16.6666333 L4,16.6666333 L17.3333333,16.6666333 L17.864,16.6666333 C18.0316667,16.6666333 18.1896667,16.7056333 18.3333333,16.7719667 C18.7253333,16.9516333 19,17.3456333 19,17.8029667 L19,18.6059667 Z M4,10.6666333 C4,6.99996667 7,3.99996667 10.6666667,3.99996667 C14.3333333,3.99996667 17.3333333,6.99996667 17.3333333,10.6666333 L17.3333333,15.6666333 L4,15.6666333 L4,10.6666333 Z M18.3333333,15.7203 L18.3333333,10.6666333 C18.3333333,6.4393 14.8943333,2.99996667 10.6666667,2.99996667 C6.43933333,2.99996667 3,6.4393 3,10.6666333 L3,15.7203 C2.04766667,15.9349667 1.33333333,16.7866333 1.33333333,17.8029667 L1.33333333,18.6059667 L1.33333333,19.6059667 L2.33333333,19.6059667 L3,19.6059667 L4,19.6059667 L17.3333333,19.6059667 L18.3333333,19.6059667 L19,19.6059667 L20,19.6059667 L20,18.6059667 L20,17.8029667 C20,16.7866333 19.286,15.9349667 18.3333333,15.7203 L18.3333333,15.7203 Z" id="Fill-1"></path>
            <path d="M10.6666667,2.33333333 C10.9426667,2.33333333 11.1666667,2.10966667 11.1666667,1.83333333 L11.1666667,0.5 C11.1666667,0.223666667 10.9426667,0 10.6666667,0 C10.3906667,0 10.1666667,0.223666667 10.1666667,0.5 L10.1666667,1.83333333 C10.1666667,2.10966667 10.3906667,2.33333333 10.6666667,2.33333333" id="Fill-3"></path>
            <path d="M4.44106667,4.1478 C4.53873333,4.24546667 4.66673333,4.29413333 4.79473333,4.29413333 C4.9224,4.29413333 5.0504,4.24546667 5.14806667,4.1478 C5.3434,3.95246667 5.3434,3.6358 5.14806667,3.4408 L4.20506667,2.4978 C4.00973333,2.30246667 3.6934,2.30246667 3.49806667,2.4978 C3.30273333,2.69313333 3.30273333,3.0098 3.49806667,3.2048 L4.44106667,4.1478 Z" id="Fill-5"></path>
            <path d="M2.33333333,9.66666667 C2.33333333,9.39033333 2.10933333,9.16666667 1.83333333,9.16666667 L0.5,9.16666667 C0.224,9.16666667 0,9.39033333 0,9.66666667 C0,9.943 0.224,10.1666667 0.5,10.1666667 L1.83333333,10.1666667 C2.10933333,10.1666667 2.33333333,9.943 2.33333333,9.66666667" id="Fill-7"></path>
            <path d="M20.8333333,9.16666667 L19.5,9.16666667 C19.224,9.16666667 19,9.39033333 19,9.66666667 C19,9.943 19.224,10.1666667 19.5,10.1666667 L20.8333333,10.1666667 C21.1093333,10.1666667 21.3333333,9.943 21.3333333,9.66666667 C21.3333333,9.39033333 21.1093333,9.16666667 20.8333333,9.16666667" id="Fill-9"></path>
            <path d="M16.5390667,4.29426667 C16.6670667,4.29426667 16.7950667,4.2456 16.8927333,4.14793333 L17.8357333,3.20493333 C18.0310667,3.0096 18.0310667,2.69326667 17.8357333,2.49793333 C17.6404,2.3026 17.3237333,2.3026 17.1287333,2.49793333 L16.1854,3.4406 C15.9904,3.63593333 15.9904,3.9526 16.1854,4.14793333 C16.2830667,4.2456 16.4110667,4.29426667 16.5390667,4.29426667" id="Fill-11"></path>
        </g>
    </g>
</svg>