<?xml version="1.0" encoding="UTF-8"?>
<svg width="24px" height="24px" viewBox="0 0 24 24" version="1.1" xmlns="http://www.w3.org/2000/svg" xmlns:xlink="http://www.w3.org/1999/xlink">
    <title>xhdpi/icon/search_clear</title>
    <g id="icon/search_clear" stroke="none" stroke-width="1" fill="none" fill-rule="evenodd">
        <g id="Group" transform="translate(3.000000, 3.000000)">
            <circle id="Oval" fill-opacity="0.25" fill="#000000" cx="9" cy="9" r="9"></circle>
            <path d="M5.85355339,5.14644661 L9.278,8.571 L12.7027958,5.14644661 C12.8980579,4.95118446 13.2146404,4.95118446 13.4099026,5.14644661 C13.6051647,5.34170876 13.6051647,5.65829124 13.4099026,5.85355339 L9.985,9.278 L13.4099026,12.7027958 C13.6051647,12.8980579 13.6051647,13.2146404 13.4099026,13.4099026 C13.2146404,13.6051647 12.8980579,13.6051647 12.7027958,13.4099026 L9.278,9.985 L5.85355339,13.4099026 C5.65829124,13.6051647 5.34170876,13.6051647 5.14644661,13.4099026 C4.95118446,13.2146404 4.95118446,12.8980579 5.14644661,12.7027958 L8.571,9.278 L5.14644661,5.85355339 C4.95118446,5.65829124 4.95118446,5.34170876 5.14644661,5.14644661 C5.34170876,4.95118446 5.65829124,4.95118446 5.85355339,5.14644661 Z" id="Combined-Shape" fill="#FFFFFF"></path>
        </g>
    </g>
</svg>