<?xml version="1.0" encoding="UTF-8"?>
<svg width="24px" height="24px" viewBox="0 0 24 24" version="1.1" xmlns="http://www.w3.org/2000/svg" xmlns:xlink="http://www.w3.org/1999/xlink">
    <title>xhdpi/icon/serch</title>
    <defs>
        <polygon id="path-1" points="0 0 20 0 20 20 0 20"></polygon>
    </defs>
    <g id="icon/serch" stroke="none" stroke-width="1" fill="none" fill-rule="evenodd">
        <g id="Group-3" transform="translate(2.000000, 2.000000)">
            <mask id="mask-2" fill="white">
                <use xlink:href="#path-1"></use>
            </mask>
            <g id="Clip-2"></g>
            <path d="M3.29696345,13.2991101 C0.539668021,10.5423974 0.539668021,6.0568987 3.29696345,3.30049337 C4.63256686,1.96486482 6.40845206,1.22957749 8.29748229,1.22957749 C10.1862051,1.22957749 11.9623977,1.96486482 13.2976937,3.30049337 C16.0546816,6.0568987 16.0546816,10.5423974 13.2976937,13.2991101 C11.9623977,14.6344312 10.1862051,15.3697186 8.29748229,15.3697186 C6.40845206,15.3697186 4.63256686,14.6344312 3.29696345,13.2991101 M19.8198288,18.9505556 L14.584411,13.7159369 C17.3952044,10.4590935 17.2574626,5.52080291 14.1671887,2.43118209 C12.5994535,0.86347079 10.5148791,0 8.29748229,0 C6.08008547,0 3.99520363,0.86347079 2.42746842,2.43118209 C-0.809156139,5.66712263 -0.809156139,10.9324808 2.42746842,14.1684214 C3.99520363,15.7361327 6.08008547,16.5992961 8.29748229,16.5992961 C10.3085739,16.5992961 12.2086727,15.8870633 13.7152235,14.5855555 L18.9503338,19.8198669 C19.0705504,19.9400581 19.2276621,20 19.3850813,20 C19.5425005,20 19.6999197,19.9400581 19.8198288,19.8198669 C19.9400454,19.6999831 20,19.5425972 20,19.3852113 C20,19.2278253 19.9400454,19.0704394 19.8198288,18.9505556" id="Fill-1" fill="#2D2D2D" mask="url(#mask-2)"></path>
        </g>
    </g>
</svg>