<?xml version="1.0" encoding="UTF-8"?>
<svg width="24px" height="24px" viewBox="0 0 24 24" version="1.1" xmlns="http://www.w3.org/2000/svg" xmlns:xlink="http://www.w3.org/1999/xlink">
    <title>xhdpi/icon/seting w</title>
    <defs>
        <polygon id="path-1" points="0 0.522789474 19.9993889 0.522789474 19.9993889 21 0 21"></polygon>
    </defs>
    <g id="icon/seting-w" stroke="none" stroke-width="1" fill="none" fill-rule="evenodd">
        <g id="Group-6" transform="translate(2.000000, 1.000000)">
            <g id="Group-3">
                <mask id="mask-2" fill="white">
                    <use xlink:href="#path-1"></use>
                </mask>
                <g id="Clip-2"></g>
                <path d="M14.2291111,17.7158211 C14.1768889,17.7500842 14.1235556,17.7854526 14.0691111,17.8175053 C14.0224444,17.8440316 13.9746667,17.8672421 13.928,17.8904526 L13.8168889,17.9457158 C13.3791111,18.1778211 12.938,18.3668211 12.5002222,18.5082947 C12.4491111,18.5248737 12.4057778,18.5602421 12.3791111,18.6077684 L11.8057778,19.5936632 C11.6335556,19.6290316 11.4624444,19.6621895 11.288,19.6865053 L8.73688889,19.6865053 C8.55466667,19.6621895 8.37244444,19.6268211 8.19022222,19.5881368 L7.61466667,18.5967158 C7.588,18.5502947 7.54355556,18.5149263 7.49244444,18.4983474 C7.03466667,18.3513474 6.59577778,18.1678737 6.18688889,17.9523474 C6.00022222,17.8550842 5.81688889,17.7545053 5.63911111,17.6439789 L5.63911111,17.6428737 C5.248,17.3964 4.87133333,17.1101368 4.51911111,16.7907158 C4.47911111,16.7542421 4.42688889,16.7332421 4.37133333,16.7332421 L3.23466667,16.7332421 C3.08466667,16.5619263 2.93355556,16.3784526 2.778,16.1717684 L1.72022222,14.3469789 C1.61355556,14.1016105 1.52022222,13.8429789 1.43133333,13.5788211 L2.00688889,12.5885053 C2.03355556,12.5420842 2.04244444,12.4890316 2.03133333,12.4359789 C1.93244444,11.9529789 1.87466667,11.4777158 1.86355556,11.0212421 C1.85911111,10.8543474 1.86577778,10.6863474 1.87244444,10.5183474 C1.89022222,10.0607684 1.94911111,9.58992632 2.05022222,9.12129474 C2.06133333,9.06824211 2.05244444,9.01297895 2.02577778,8.96545263 L1.45466667,7.98176842 C1.59022222,7.57061053 1.73244444,7.20697895 1.89133333,6.87982105 L2.49244444,5.84418947 C2.75688889,5.4474 3.02688889,5.10476842 3.31355556,4.78976842 L4.46911111,4.78976842 C4.52244444,4.78976842 4.57466667,4.76987368 4.61466667,4.73561053 C4.96022222,4.43166316 5.358,4.1454 5.79466667,3.88234737 L5.86911111,3.83482105 C5.88911111,3.82266316 5.91022222,3.80829474 5.93022222,3.79503158 C5.96577778,3.77624211 6.00133333,3.75745263 6.03577778,3.73866316 L6.11355556,3.69776842 C6.54911111,3.46234737 6.99466667,3.26892632 7.438,3.12192632 C7.48911111,3.10424211 7.53244444,3.06887368 7.55911111,3.02355789 L8.13466667,2.03103158 C9.358,1.77129474 10.6157778,1.77571579 11.8735556,2.04429474 L12.448,3.03682105 C12.4757778,3.08324211 12.5191111,3.11861053 12.5702222,3.13518947 C13.0246667,3.2844 13.468,3.47561053 13.8868889,3.70108421 L13.888,3.70108421 L13.9646667,3.74197895 C14.0491111,3.78729474 14.1335556,3.83261053 14.2157778,3.88234737 L14.2168889,3.88234737 C14.6157778,4.12218947 15.0046667,4.40845263 15.3757778,4.73450526 C15.4168889,4.76987368 15.468,4.78976842 15.5224444,4.78976842 L16.6768889,4.78976842 C16.9935556,5.13903158 17.2935556,5.52366316 17.5635556,5.94034737 L18.0191111,6.72618947 C18.2357778,7.14729474 18.4124444,7.56508421 18.5513333,7.97403158 L17.9813333,8.9544 C17.9546667,9.00192632 17.9457778,9.05829474 17.9557778,9.11134737 C18.0591111,9.5844 18.1191111,10.0530316 18.1357778,10.5061895 C18.1413333,10.6454526 18.1368889,10.7847158 18.1324444,10.9239789 L18.1302222,11.0090842 C18.1168889,11.4810316 18.0613333,11.9585053 17.9635556,12.4282421 C17.9535556,12.4812947 17.9613333,12.5354526 17.9891111,12.5807684 L18.5646667,13.5744 C18.4757778,13.8474 18.3757778,14.1181895 18.2624444,14.3768211 L17.1946667,16.2181895 C17.0713333,16.3806632 16.928,16.5508737 16.7646667,16.7332421 L15.6257778,16.7332421 C15.5713333,16.7332421 15.518,16.7531368 15.478,16.7896105 C15.1402222,17.0946632 14.7591111,17.3809263 14.3424444,17.6428737 L14.2291111,17.7158211 Z M19.338,12.2801368 C19.4968889,11.2920316 19.4913333,10.2796105 19.3224444,9.2694 L19.8535556,8.35424211 C20.048,8.01713684 20.048,7.59824211 19.8535556,7.26113684 L17.9746667,4.02382105 C17.7791111,3.68671579 17.4146667,3.47671579 17.0224444,3.47671579 L15.918,3.47671579 C15.1435556,2.85776842 14.2935556,2.37034737 13.3857778,2.02550526 L12.8313333,1.06945263 C12.6357778,0.732347368 12.2713333,0.522347368 11.8791111,0.522347368 L8.12133333,0.522347368 C7.72911111,0.522347368 7.36466667,0.732347368 7.16911111,1.06945263 L6.60911111,2.03434737 C6.11355556,2.22334737 5.67244444,2.42782105 5.27022222,2.65882105 C4.88466667,2.88097895 4.49577778,3.15176842 4.088,3.47671579 L2.978,3.47671579 C2.58577778,3.47671579 2.22133333,3.68671579 2.02577778,4.02271579 L0.146888889,7.26113684 C-0.0486666667,7.59824211 -0.0497777778,8.01713684 0.146888889,8.35424211 L0.676888889,9.26608421 C0.509111111,10.2586105 0.504666667,11.2699263 0.665777778,12.2735053 L0.146888889,13.1687684 C-0.0486666667,13.5047684 -0.0497777778,13.9247684 0.146888889,14.2629789 L2.02577778,17.4991895 C2.22133333,17.8362947 2.58577778,18.0462947 2.978,18.0462947 L3.97466667,18.0462947 C4.78911111,18.7194 5.698,19.2444 6.67911111,19.6091368 L7.16911111,20.4535579 C7.36466667,20.7906632 7.72911111,21.0006632 8.12133333,21.0006632 L11.8791111,21.0006632 C12.2713333,21.0006632 12.6357778,20.7895579 12.8302222,20.4535579 L13.3202222,19.6113474 C13.8202222,19.4234526 14.2946667,19.2046105 14.7291111,18.9537158 C15.1735556,18.7006105 15.598,18.3988737 16.028,18.0462947 L17.0224444,18.0462947 C17.4146667,18.0462947 17.7791111,17.8362947 17.9746667,17.4991895 L19.8535556,14.2618737 C20.048,13.9247684 20.048,13.5047684 19.8535556,13.1687684 L19.338,12.2801368 Z" id="Fill-1" fill="#FFFFFF" mask="url(#mask-2)"></path>
            </g>
            <path d="M10.0005612,15.6674151 C7.4268076,15.6674151 5.33458049,13.5747965 5.33458049,11.0005613 C5.33458049,8.42744878 7.4268076,6.33370755 10.0005612,6.33370755 C12.5731924,6.33370755 14.666542,8.42744878 14.666542,11.0005613 C14.666542,13.5747965 12.5731924,15.6674151 10.0005612,15.6674151 M10.0005612,5 C6.6927322,5 4,7.69211339 4,11.0005613 C4,14.3090093 6.6927322,17 10.0005612,17 C13.3083902,17 16,14.3090093 16,11.0005613 C16,7.69211339 13.3083902,5 10.0005612,5" id="Fill-4" fill="#FFFFFF"></path>
        </g>
    </g>
</svg>