<?xml version="1.0" encoding="UTF-8"?>
<svg width="156px" height="129px" viewBox="0 0 156 129" version="1.1" xmlns="http://www.w3.org/2000/svg" xmlns:xlink="http://www.w3.org/1999/xlink">
    <title>xhdpi/Group 27</title>
    <g id="회원가입" stroke="none" stroke-width="1" fill="none" fill-rule="evenodd">
        <g id="SPLASH" transform="translate(-102.000000, -274.000000)">
            <g id="Group-27" transform="translate(102.000000, 274.000000)">
                <path d="M104.846785,55.919035 C104.715224,46.7802047 104.921323,37.6397452 104.79302,28.5013222 C104.75066,25.475411 104.835788,23.9646956 104.332759,21.406377 C104.01302,19.7791708 103.194733,15.8445493 100.406691,11.6749097 C96.1576261,5.31882611 90.111506,2.66560418 88.2236209,1.91452324 C87.3613441,1.57156762 83.2466914,-0.0120563969 77.8999238,9.25920808e-05 C72.5527488,-0.0120563969 68.4385034,1.57156762 67.5762266,1.91452324 C65.6883415,2.66560418 59.6422214,5.31882611 55.3931561,11.6749097 C52.6051144,15.8445493 51.7860125,19.7791708 51.4666809,21.406377 C50.9640595,23.9646956 51.0491875,25.475411 51.0064198,28.5013222 C50.878117,37.6397452 51.0842162,46.7802047 50.9526548,55.919035 C50.9485817,56.2159645 50.9221065,57.178847 51.5477358,57.9600689 C51.6422319,58.0777817 51.742023,58.1808313 51.843036,58.270847 C51.843036,58.270847 52.2988167,58.6744919 52.8405399,58.7913901 C53.5814381,58.9506486 63.7287697,58.9811969 77.8999238,58.8867008 C92.0710778,58.9811969 102.218409,58.9506486 102.959308,58.7913901 C103.500623,58.6744919 103.956404,58.270847 103.956404,58.270847 C104.057825,58.1808313 104.157616,58.0777817 104.251704,57.9600689 C104.877741,57.178847 104.851266,56.2159645 104.846785,55.919035" id="Fill-1" fill="#FFFFFF"></path>
                <path d="M77.9579248,77.9539739 C71.0369013,77.9539739 65.4066454,72.323718 65.4066454,65.4035091 C65.4066454,64.2858486 66.3125044,63.3799896 67.4297577,63.3799896 C68.5474183,63.3799896 69.4532773,64.2858486 69.4532773,65.4035091 C69.4532773,70.09247 73.2685567,73.907342 77.9579248,73.907342 C82.647293,73.907342 86.462165,70.09247 86.462165,65.4035091 C86.462165,64.2858486 87.368024,63.3799896 88.4852773,63.3799896 C89.6029379,63.3799896 90.5087969,64.2858486 90.5087969,65.4035091 C90.5087969,72.323718 84.8781337,77.9539739 77.9579248,77.9539739" id="Fill-3" fill="#FFD400"></path>
                <path d="M7.34519687,116.795652 C12.0565598,116.795652 16.0262099,113.2716 16.5830037,108.596895 C16.9157765,105.814556 16.1369984,103.21795 14.3941159,101.251454 C12.6125389,99.285365 10.0534057,98.1725922 7.23359373,98.1725922 L3.7091342,98.1725922 L3.7091342,116.795652 L7.34519687,116.795652 Z M1.85464856,120.504623 C0.85307154,120.504623 0.000162924282,119.652122 0.000162924282,118.650545 L0.000162924282,96.3543572 C0.000162924282,95.3165295 0.85307154,94.4628063 1.85464856,94.4628063 L7.23359373,94.4628063 C9.20049713,94.4628063 11.0541681,94.8713389 12.7982726,95.6126444 C14.4678392,96.3543572 15.9520794,97.4304721 17.1385755,98.8031091 C18.3258862,100.138274 19.2162674,101.696644 19.7730611,103.440342 C20.3294475,105.220697 20.5143666,107.07559 20.2923822,109.004613 C19.9209149,112.158013 18.4000167,115.051955 16.0262099,117.20337 C13.6515885,119.318127 10.5352543,120.504623 7.34519687,120.504623 L1.85464856,120.504623 Z" id="Fill-5" fill="#FFFFFF"></path>
                <path d="M141.838866,97.807601 C141.838866,98.8258778 141.013247,99.6502747 139.996192,99.6502747 C138.978323,99.6502747 138.153519,98.8258778 138.153519,97.807601 C138.153519,96.7897316 138.978323,95.9653347 139.996192,95.9653347 C141.013247,95.9653347 141.838866,96.7897316 141.838866,97.807601" id="Fill-7" fill="#FFFFFF"></path>
                <path d="M155.799399,97.807601 C155.799399,98.8258778 154.973781,99.6502747 153.956726,99.6502747 C152.938856,99.6502747 152.113238,98.8258778 152.113238,97.807601 C152.113238,96.7897316 152.938856,95.9653347 153.956726,95.9653347 C154.973781,95.9653347 155.799399,96.7897316 155.799399,97.807601" id="Fill-9" fill="#FFFFFF"></path>
                <path d="M155.76877,104.523421 C155.764289,104.241562 155.746775,103.656257 155.339057,103.247317 C154.926044,102.829823 154.315485,102.802941 154.016519,102.811087 C153.719997,102.810273 153.134691,102.852226 152.738785,103.261166 C152.331067,103.682732 152.324958,104.280257 152.32618,104.557636 C152.340028,107.170941 152.32618,110.13657 152.32618,111.639547 C152.32618,114.559557 149.962963,116.922774 147.041323,116.922774 C147.019736,116.922774 146.997741,116.92644 146.976154,116.928884 C146.954159,116.92644 146.932571,116.922774 146.910577,116.922774 C143.989751,116.922774 141.62572,114.559557 141.62572,111.639547 C141.62572,110.13657 141.612279,107.170941 141.62572,104.557636 C141.626942,104.280257 141.62124,103.682732 141.214744,103.261166 C140.817208,102.852226 140.23231,102.810273 139.935381,102.811087 C139.636822,102.802941 139.02667,102.829823 138.612843,103.247317 C138.205125,103.656257 138.188018,104.241562 138.183537,104.523421 C138.114702,109.014429 138.183537,111.24527 138.183537,111.639547 C138.183537,116.471881 142.112456,120.365771 146.910577,120.365771 C146.933793,120.365771 146.954159,120.363327 146.976154,120.362105 C146.997741,120.363327 147.018514,120.365771 147.041323,120.365771 C151.839851,120.365771 155.76877,116.471881 155.76877,111.639547 C155.76877,111.24527 155.837198,109.014429 155.76877,104.523421" id="Fill-11" fill="#FFFFFF"></path>
                <path d="M22.1885765,118.674291 L22.1885765,105.935649 C22.1885765,105.08274 22.8838559,104.386239 23.768942,104.386239 C24.622258,104.386239 25.31713,105.08274 25.31713,105.935649 L25.31713,118.674291 C25.31713,119.558563 24.622258,120.255064 23.768942,120.255064 C22.8838559,120.255064 22.1885765,119.558563 22.1885765,118.674291 M22.6626862,100.783576 C22.3787906,100.49968 22.1885765,100.088297 22.1885765,99.6773201 C22.1885765,99.2675655 22.3787906,98.8553671 22.6626862,98.5714715 C22.9478037,98.2859467 23.3579655,98.0969546 23.768942,98.0969546 C24.1799185,98.0969546 24.590895,98.2859467 24.8751979,98.5714715 C25.1603154,98.8553671 25.31713,99.2675655 25.31713,99.6773201 C25.31713,100.088297 25.1603154,100.49968 24.8751979,100.783576 C24.590895,101.068693 24.1799185,101.22673 23.768942,101.22673 C23.3579655,101.22673 22.9478037,101.068693 22.6626862,100.783576" id="Fill-13" fill="#FFFFFF"></path>
                <path d="M42.938165,112.289004 L42.938165,118.643458 C42.938165,119.527322 42.2428856,120.223416 41.3577995,120.223416 C40.5044836,120.223416 39.8083896,119.527322 39.8083896,118.643458 L39.8083896,112.289004 C39.8083896,109.634152 37.659011,107.484774 35.0041598,107.484774 C32.3489013,107.484774 30.1995227,109.634152 30.1995227,112.289004 L30.1995227,118.643458 C30.1995227,119.527322 29.5042433,120.223416 28.6191572,120.223416 C27.7658413,120.223416 27.0705619,119.527322 27.0705619,118.643458 L27.0705619,112.289004 C27.0705619,107.896158 30.6426768,104.354998 35.0041598,104.354998 C39.3664574,104.354998 42.938165,107.896158 42.938165,112.289004" id="Fill-15" fill="#FFFFFF"></path>
                <path d="M57.4905619,112.289004 C57.4905619,109.634152 55.3102277,107.484774 52.6867394,107.484774 C50.0310736,107.484774 47.8812877,109.634152 47.8812877,112.289004 C47.8812877,114.912085 50.0310736,117.094048 52.6867394,117.094048 C55.3102277,117.094048 57.4905619,114.912085 57.4905619,112.289004 L57.4905619,112.289004 Z M60.6203373,120.223416 C60.6203373,124.584492 57.0486298,128.156199 52.6867394,128.156199 C49.6196898,128.156199 46.9008909,126.449975 45.5421023,123.700628 C45.1628961,122.910038 45.4789692,121.993996 46.269152,121.61479 C47.0283791,121.234769 47.9765984,121.550842 48.3553974,122.309254 C49.1777577,123.984523 50.8208491,125.027646 52.6867394,125.027646 C55.3102277,125.027646 57.4274287,122.910038 57.4905619,120.318727 L57.4905619,118.579103 C56.1313661,119.591677 54.4878674,120.223416 52.6867394,120.223416 C48.2922642,120.223416 44.7519196,116.652116 44.7519196,112.289004 C44.7519196,107.896158 48.2922642,104.354998 52.6867394,104.354998 C57.0486298,104.354998 60.6203373,107.896158 60.6203373,112.289004 L60.6203373,120.223416 Z" id="Fill-17" fill="#FFFFFF"></path>
                <path d="M75.203812,112.226156 L75.203812,112.1952 C75.203812,109.571712 73.0544334,107.422333 70.3999896,107.422333 C67.7443238,107.422333 65.5949452,109.571712 65.5949452,112.226156 C65.5949452,114.849644 67.7443238,117.030385 70.3999896,117.030385 C73.0544334,117.030385 75.203812,114.881007 75.203812,112.226156 M75.203812,105.903879 L75.203812,98.0330068 C75.203812,97.1800982 75.8990914,96.4848188 76.7532219,96.4848188 C77.6374935,96.4848188 78.3335875,97.1800982 78.3335875,98.0330068 L78.3335875,112.1952 L78.3335875,112.226156 C78.3335875,116.588046 74.7618799,120.160161 70.3999896,120.160161 C66.0059217,120.160161 62.4651697,116.588046 62.4651697,112.226156 C62.4651697,107.832088 66.0059217,104.291743 70.3999896,104.291743 C72.2011175,104.291743 73.8763864,104.893748 75.203812,105.903879" id="Fill-19" fill="#FFFFFF"></path>
                <path d="M83.2145953,112.289004 C83.2145953,114.912085 85.362752,117.094048 88.0184178,117.094048 C90.6740836,117.094048 92.8234621,114.912085 92.8234621,112.289004 C92.8234621,109.634152 90.6740836,107.484774 88.0184178,107.484774 C85.362752,107.484774 83.2145953,109.634152 83.2145953,112.289004 M80.0848198,112.289004 C80.0848198,107.896158 83.6565274,104.354998 88.0184178,104.354998 C92.4124856,104.354998 95.9532376,107.896158 95.9532376,112.289004 C95.9532376,116.652116 92.4124856,120.223416 88.0184178,120.223416 C83.6565274,120.223416 80.0848198,116.652116 80.0848198,112.289004" id="Fill-21" fill="#FFFFFF"></path>
                <path d="M113.634799,112.289004 L113.634799,118.643458 C113.634799,119.527322 112.93952,120.223416 112.054433,120.223416 C111.201117,120.223416 110.505023,119.527322 110.505023,118.643458 L110.505023,112.289004 C110.505023,109.634152 108.355645,107.484774 105.701201,107.484774 C103.045535,107.484774 100.896157,109.634152 100.896157,112.289004 L100.896157,118.643458 C100.896157,119.527322 100.200877,120.223416 99.3157911,120.223416 C98.4624752,120.223416 97.7671958,119.527322 97.7671958,118.643458 L97.7671958,112.289004 C97.7671958,107.896158 101.339311,104.354998 105.701201,104.354998 C110.063091,104.354998 113.634799,107.896158 113.634799,112.289004" id="Fill-23" fill="#FFFFFF"></path>
                <path d="M128.187196,112.289004 C128.187196,109.634152 126.00564,107.484774 123.383373,107.484774 C120.727708,107.484774 118.578329,109.634152 118.578329,112.289004 C118.578329,114.912085 120.727708,117.094048 123.383373,117.094048 C126.00564,117.094048 128.187196,114.912085 128.187196,112.289004 L128.187196,112.289004 Z M131.316971,120.223416 C131.316971,124.584492 127.745264,128.156199 123.383373,128.156199 C120.316324,128.156199 117.597932,126.449975 116.238736,123.700628 C115.85953,122.910038 116.175603,121.993996 116.965786,121.61479 C117.725013,121.234769 118.673232,121.550842 119.052031,122.309254 C119.874392,123.984523 121.517483,125.027646 123.383373,125.027646 C126.00564,125.027646 128.124063,122.910038 128.187196,120.318727 L128.187196,118.579103 C126.828,119.591677 125.184501,120.223416 123.383373,120.223416 C118.989305,120.223416 115.448554,116.652116 115.448554,112.289004 C115.448554,107.896158 118.989305,104.354998 123.383373,104.354998 C127.745264,104.354998 131.316971,107.896158 131.316971,112.289004 L131.316971,120.223416 Z" id="Fill-25" fill="#FFFFFF"></path>
            </g>
        </g>
    </g>
</svg>