<?xml version="1.0" encoding="UTF-8"?>
<svg width="200px" height="200px" viewBox="0 0 200 200" version="1.1" xmlns="http://www.w3.org/2000/svg" xmlns:xlink="http://www.w3.org/1999/xlink">
    <title>xhdpi/thumb_default_alram_02</title>
    <g id="thumb_default_alram_02" stroke="none" stroke-width="1" fill="none" fill-rule="evenodd">
        <rect id="Rectangle" fill="#FFE59F" x="0" y="0" width="200" height="200"></rect>
        <g id="Group-5" transform="translate(54.000000, 38.000000)" stroke="#FFD04E">
            <path d="M91.9975362,94.8743525 C91.7729609,79.3696447 92.1247293,63.8609863 91.9061161,48.3562785 C91.8335763,43.2222824 91.9786559,40.6592351 91.1201026,36.3183515 C90.5745635,33.5587546 89.1774268,26.8829793 84.4186165,19.8081786 C77.1656291,9.02362621 66.8451021,4.52273737 63.6225459,3.24862137 C62.150882,2.66687383 55.1274385,-0.0206220132 46.0003404,0 C36.8732423,-0.0206220132 29.8497987,2.66687383 28.3781349,3.24862137 C25.1555786,4.52273737 14.8350516,9.02362621 7.58206422,19.8081786 C2.8232539,26.8829793 1.42512358,33.5587546 0.879584457,36.3183515 C0.0220247778,40.6592351 0.167104399,43.2222824 0.0945645885,48.3562785 C-0.125042235,63.8609863 0.226726161,79.3696447 0.00215085711,94.8743525 C-0.00480501514,95.3780727 -0.0495213368,97.0117067 1.01770821,98.3371825 C1.17968066,98.5366952 1.34960268,98.7115158 1.52250579,98.8646072 C1.52250579,98.8646072 2.30056979,99.5480865 3.2247071,99.7475992 C4.48968216,100.018225 21.8107978,100.069585 46.0003404,99.9095799 C70.189883,100.069585 87.5109986,100.018225 88.7759736,99.7475992 C89.7001109,99.5480865 90.4781749,98.8646072 90.4781749,98.8646072 C90.651078,98.7115158 90.8210001,98.5366952 90.9819788,98.3371825 C92.0502021,97.0117067 92.0054857,95.3780727 91.9975362,94.8743525" id="Fill-1" stroke-width="10"></path>
            <path d="M46.000487,137 C34.4205607,137 25,127.341522 25,115.470142 C25,113.553825 26.5165233,112 28.3856358,112 C30.2547483,112 31.7712715,113.553825 31.7712715,115.470142 C31.7712715,123.513881 38.1539157,130.058718 46.000487,130.058718 C53.8460843,130.058718 60.2287285,123.513881 60.2287285,115.470142 C60.2287285,113.553825 61.7452517,112 63.6143642,112 C65.4834767,112 67,113.553825 67,115.470142 C67,127.341522 57.5794393,137 46.000487,137" id="Fill-3" stroke-width="1.5" fill="#FFD04E"></path>
        </g>
    </g>
</svg>