<?xml version="1.0" encoding="UTF-8"?>
<svg width="200px" height="200px" viewBox="0 0 200 200" version="1.1" xmlns="http://www.w3.org/2000/svg" xmlns:xlink="http://www.w3.org/1999/xlink">
    <title>xhdpi/thumb_default_people_01</title>
    <g id="thumb_default_people_01" stroke="none" stroke-width="1" fill="none" fill-rule="evenodd">
        <rect id="Rectangle" fill="#E8E9FF" x="0" y="0" width="200" height="200"></rect>
        <path d="M29,200.520243 C29.0507255,189.808058 31.4251617,179.647289 35.6281313,170.50848 C37.3962771,166.658367 39.4929309,162.99206 41.8794446,159.543868 C50.7733146,146.687286 63.6841607,136.876973 78.7641256,132 C85.0782419,136.019214 92.5131501,138.379277 100.498792,138.379277 C108.484434,138.379277 115.919343,136.019214 122.233459,132 C137.313424,136.876973 150.22427,146.687286 159.120555,159.543868 C161.504654,162.99206 163.601307,166.658367 165.371869,170.50848 C169.572423,179.647289 171.946859,189.808058 172,200.520243 C154.690529,204.220861 130.687708,207 100.498792,207 C70.3098765,207 46.3070556,204.220861 29,200.520243 Z M100.5,64 C117.868615,64 132,78.3556923 132,96 C132,105.924923 127.529423,114.811077 120.524308,120.684308 C115.079654,125.252923 108.098769,128 100.5,128 C92.9012308,128 85.9203462,125.252923 80.4756923,120.684308 C73.4705769,114.811077 69,105.924923 69,96 C69,78.3556923 83.1313846,64 100.5,64 Z M177.125134,172.765258 C175.735433,168.880424 174.069248,165.128955 172.14598,161.535545 C163.138391,144.726788 148.547747,131.442288 130.927895,124.215955 C137.614466,116.75253 141.730211,106.861394 141.730211,95.9848485 C141.730211,72.8339091 123.234823,54 100.5,54 C77.7651768,54 59.2697893,72.8339091 59.2697893,95.9848485 C59.2697893,106.861394 63.3855345,116.75253 70.0721045,124.218424 C52.454678,131.442288 37.864034,144.726788 28.8540204,161.535545 C26.9307523,165.128955 25.2645667,168.880424 23.8748661,172.765258 C21.0130044,180.762136 19.3516694,189.331985 19.0679086,198.25253 C19.0412302,199.14903 19,200.043061 19,200.94697 C19,203.512985 19.1333919,206.046894 19.3589454,208.556106 C20.3048149,208.798136 21.2385579,209.040167 22.2256577,209.274788 C24.5248482,209.820591 26.9234764,210.336758 29.3803119,210.828227 C49.3236073,214.821727 74.2266546,217 100.5,217 C126.773345,217 151.676393,214.821727 171.619688,210.828227 C174.078949,210.336758 176.475152,209.820591 178.774342,209.274788 C179.761442,209.040167 180.695185,208.798136 181.641055,208.556106 C181.866608,206.046894 182,203.512985 182,200.94697 C182,200.043061 181.961195,199.14903 181.932091,198.25253 C181.648331,189.331985 179.986996,180.762136 177.125134,172.765258 Z" id="Fill-1" fill="#C1C4FF"></path>
    </g>
</svg>