<?xml version="1.0" encoding="UTF-8"?>
<svg width="24px" height="24px" viewBox="0 0 24 24" version="1.1" xmlns="http://www.w3.org/2000/svg" xmlns:xlink="http://www.w3.org/1999/xlink">
    <title>xhdpi/icon/write</title>
    <defs>
        <polygon id="path-1" points="0 19.0748 19.075 19.0748 19.075 -0.0002 0 -0.0002"></polygon>
    </defs>
    <g id="icon/write" stroke="none" stroke-width="1" fill="none" fill-rule="evenodd">
        <g id="Group-5" transform="translate(2.000000, 2.000000)">
            <path d="M16.8114,4.8745 L16.6514,5.0345 L14.0404,2.4235 L14.1994,2.2645 C14.2294,2.2345 14.2574,2.2025 14.2824,2.1705 C14.5184,1.8665 15.3874,1.0005 16.2554,1.0005 C16.6684,1.0005 17.0654,1.1975 17.4714,1.6035 C17.9014,2.0325 18.0984,2.4565 18.0724,2.8975 C18.0244,3.7315 17.2104,4.5505 16.9044,4.7925 C16.8714,4.8175 16.8404,4.8455 16.8114,4.8745 Z M4.3144,17.3715 L1.2054,17.8685 L1.7034,14.7605 L13.3694,3.0945 L15.9804,5.7055 L4.3144,17.3715 Z M18.1784,0.8965 C17.5194,0.2365 16.8614,0.0005 16.2554,0.0005 C14.7024,0.0005 13.4924,1.5575 13.4924,1.5575 L0.7664,14.2825 L0.0004,19.0745 L4.7924,18.3085 L17.5184,5.5815 C17.5184,5.5815 20.5264,3.2445 18.1784,0.8965 L18.1784,0.8965 Z" id="Fill-1" fill="#000000"></path>
            <mask id="mask-2" fill="white">
                <use xlink:href="#path-1"></use>
            </mask>
            <g id="Clip-4"></g>
        </g>
        <rect id="Rectangle" fill="#000000" x="2" y="22" width="20" height="1"></rect>
    </g>
</svg>