<?xml version="1.0" encoding="UTF-8"?>
<svg width="95px" height="15px" viewBox="0 0 95 15" version="1.1" xmlns="http://www.w3.org/2000/svg" xmlns:xlink="http://www.w3.org/1999/xlink">
    <title>xhdpi/Group 6</title>
    <defs>
        <!-- <filter color-interpolation-filters="auto" id="filter-1">
            <feColorMatrix in="SourceGraphic" type="matrix" values="0 0 0 0 0.176471 0 0 0 0 0.549020 0 0 0 0 1.000000 0 0 0 1.000000 0"></feColorMatrix>
        </filter> -->
        <polygon id="path-2" points="0 0 6.34615385 0 6.34615385 14.4230769 0 14.4230769"></polygon>
        <polygon id="path-4" points="0 0 19.6153846 0 19.6153846 14.4230769 0 14.4230769"></polygon>
    </defs>
    <g id="링크(작업X)" stroke="none" stroke-width="1" fill="none" fill-rule="evenodd">
        <g id="줌-선택-" transform="translate(-249.000000, -93.000000)">
            <g id="Group-6" transform="translate(249.961538, 93.000000)" filter="url(#filter-1)">
                <g>
                    <g transform="translate(0.000000, 0.576923)">
                        <path d="M0,0 L14.74527,0 C14.74527,0 18.3416228,0.360161287 18.4615385,3.24145158 L18.4615385,14.4064515 L4.19581942,14.4064515 C4.19581942,14.4064515 0.119803993,14.8867038 0,10.6848594 L0,0 Z" id="Fill-1" fill="#FFFFFF"></path>
                        <g id="Group-5" transform="translate(19.615385, 0.000000)">
                            <mask id="mask-3" fill="white">
                                <use xlink:href="#path-2"></use>
                            </mask>
                            <g id="Clip-4"></g>
                            <polygon id="Fill-3" fill="#FFFFFF" mask="url(#mask-3)" points="6.34615385 0 6.34615385 14.4230993 0 10.2045189 0 4.32189808"></polygon>
                        </g>
                    </g>
                    <g id="Group-10" transform="translate(30.576923, 0.000000)">
                        <path d="M0.0262928739,0.576923077 L11.6569775,0.576923077 C11.6569775,0.576923077 13.9363984,0.635499727 13.6441211,3.39102613 L5.05259714,12.0680459 L11.5400867,12.0680459 C11.5400867,12.0680459 14.6962389,11.716384 14.4039616,14.9994032 L3.24073945,14.9994032 C3.24073945,14.9994032 0.844427771,15.1165565 0.786032713,12.0680459 L9.43605237,3.44980477 L2.9485628,3.44980477 C2.9485628,3.44980477 -0.324379517,3.44960278 0.0262928739,0.576923077" id="Fill-1" fill="#FFFFFF"></path>
                        <path d="M27.6923077,7.78851163 C27.6923077,3.805393 24.4635372,0.576923077 20.4808193,0.576923077 C16.4980012,0.576923077 13.2692308,3.805393 13.2692308,7.78851163 C13.2692308,11.7715301 16.4980012,15 20.4808193,15 C24.4635372,15 27.6923077,11.7715301 27.6923077,7.78851163 M20.4808193,12.1504072 C18.0718139,12.1504072 16.1188236,10.1976172 16.1188236,7.78851163 C16.1188236,5.37940607 18.0718139,3.42651587 20.4808193,3.42651587 C22.8898247,3.42651587 24.8427149,5.37940607 24.8427149,7.78851163 C24.8427149,10.1976172 22.8898247,12.1504072 20.4808193,12.1504072" id="Fill-3" fill="#FFFFFF"></path>
                        <path d="M42.6923077,7.78851163 C42.6923077,3.805393 39.4636927,0.576923077 35.4808193,0.576923077 C31.4980461,0.576923077 28.2692308,3.805393 28.2692308,7.78851163 C28.2692308,11.7715301 31.4980461,15 35.4808193,15 C39.4636927,15 42.6923077,11.7715301 42.6923077,7.78851163 M35.4808193,12.1504072 C33.0718807,12.1504072 31.1188631,10.1976172 31.1188631,7.78851163 C31.1188631,5.37940607 33.0718807,3.42651587 35.4808193,3.42651587 C37.8898582,3.42651587 39.8428757,5.37940607 39.8428757,7.78851163 C39.8428757,10.1976172 37.8898582,12.1504072 35.4808193,12.1504072" id="Fill-5" fill="#FFFFFF"></path>
                        <g id="Group-9" transform="translate(43.846154, 0.000000)">
                            <mask id="mask-5" fill="white">
                                <use xlink:href="#path-4"></use>
                            </mask>
                            <g id="Clip-8"></g>
                            <path d="M0,0.0521224987 L0,14.3866094 C0,14.3866094 2.65705986,14.9081343 2.76992112,12.0067085 L2.76992112,5.85537393 C2.76992112,5.85537393 2.88307452,2.95364825 5.65299564,2.89566771 C5.65299564,2.89566771 8.30966599,3.01162878 8.42272201,5.73941286 L8.42272201,12.0648889 C8.42272201,12.0648889 8.59235472,14.6191313 11.3057965,14.3866094 L11.3057965,5.7973934 C11.3057965,5.7973934 11.3622758,2.72162615 14.1886763,2.89566771 C14.1886763,2.89566771 16.5628527,3.06980924 16.7324854,5.33304931 L16.7324854,11.3103423 C16.7324854,11.3103423 16.5064707,14.7350924 19.6154625,14.3866094 L19.6154625,5.56527134 C19.6154625,5.56527134 19.4459272,0.632227715 14.471365,0.0521224987 C14.471365,0.0521224987 11.3056018,-0.0638385648 9.80763388,2.02525997 C9.80763388,2.02525997 6.4936611,-1.82924579 2.54371171,1.09677173 C2.54371171,1.09677173 1.63916619,0.167983596 0,0.0521224987" id="Fill-7" fill="#FFFFFF" mask="url(#mask-5)"></path>
                        </g>
                    </g>
                </g>
            </g>
        </g>
    </g>
</svg>